<svg xmlns="http://www.w3.org/2000/svg" width="160" height="160" shape-rendering="geometricPrecision" text-rendering="geometricPrecision" image-rendering="optimizeQuality" fill-rule="evenodd" clip-rule="evenodd" viewBox="0 0 1152 1152"><path fill="#8f8a82" d="M367.5 119.5v1a1524.721 1524.721 0 0 0-133 1l5-2a1055.69 1055.69 0 0 1 128 0z" opacity=".649" /><path fill="#514b3e" d="M656.5 119.5v1h-57v-1c18.86-.568 37.86-.568 57 0z" opacity=".42" /><path fill="#0c0a07" d="M367.5 120.5h10c.763.768 1.763 1.268 3 1.5l27 1c-2.621.906-2.454 1.406.5 1.5h12c1.812.007 3.312-.66 4.5-2a10.408 10.408 0 0 1 5 3 4.457 4.457 0 0 0 1.5-2c1.738.627 3.571.96 5.5 1 2.14-.056 3.806-.723 5-2h6a1253.982 1253.982 0 0 0 120 0c5.95 1.562 11.783 1.229 17.5-1a34.45 34.45 0 0 0 7 1 567.464 567.464 0 0 0 25.5-2h39a546.613 546.613 0 0 1 59 2c4.293-1.443 8.46-1.11 12.5 1a937.866 937.866 0 0 1 50.5-1 2970.171 2970.171 0 0 0 96.5 5 483.52 483.52 0 0 1 59 0c1.728-.046 3.228.454 4.5 1.5a335.21 335.21 0 0 1 39 3 245.538 245.538 0 0 0 32 6.5c-.13.876.2 1.543 1 2 3.38.587 6.38 1.921 9 4 1.12 2.99 2.96 5.657 5.5 8 1.18 2.95 3.18 5.283 6 7 .36 3.044 1.03 3.378 2 1 .59 1.399.43 2.732-.5 4 1.13 1.104 1.96.771 2.5-1-.17 3-.33 6-.5 9 .67.333 1.33.667 2 1-1.37 2.12-.7 3.12 2 3 .09 4.842.76 9.342 2 13.5-2.39 4.698-2.89 9.531-1.5 14.5.74-1.141 1.57-1.141 2.5 0 1.25 1.506 1.25 3.006 0 4.5.86 1.359 1.86 2.526 3 3.5-1.6-.268-2.93.066-4 1-2.46 1.993-2.62 4.326-.5 7 2.34 1.578 4.17 1.245 5.5-1v-1l4-1c.18 4.539-.16 9.039-1 13.5 2.22 3.613 2.55 7.447 1 11.5-.01 2.111.65 3.945 2 5.5-1.19 3.922-.85 7.755 1 11.5a54.169 54.169 0 0 0-1.5 17c.38.556.88.889 1.5 1v3c-.93 1.272-1.6 2.772-2 4.5.14 1.301.81 2.134 2 2.5v3c-1.6 1.452-2.6 3.285-3 5.5 2.15 4.689 2.49 9.522 1 14.5-3.09.995-3.76 2.995-2 6a57.53 57.53 0 0 0-3 12.5c2.54 2.439 4.21 5.439 5 9-.39 1.011-1.06 1.511-2 1.5 1.4 1.352 2.06 3.019 2 5-.43 7.117-.6 14.451-.5 22-1.36.865-2.53 1.865-3.5 3h-4c.12-3.41-1.55-4.744-5-4v-7h-4c-2.1.299-4.1-.034-6-1a50.768 50.768 0 0 0 5.5-4c.33.667.67 1.333 1 2 1.4-2.027 3.06-2.36 5-1 .28-3.502.45-6.835.5-10-1.43-.085-2.77-1.085-4-3 .82-1.611 2.15-2.278 4-2 .27-1.599-.07-2.932-1-4-1.03-1.353-2.36-2.353-4-3 .29-1.149 1.12-1.816 2.5-2 2.55 1.019 5.05 1.019 7.5 0-2.56-1.62-2.56-3.12 0-4.5a4.939 4.939 0 0 0-3-.5c-1.71-1.238-3.71-1.905-6-2-4.48-1.555-9.15-2.555-14-3a48.98 48.98 0 0 1 1-11c-.14-1.53-.81-2.53-2-3-1.1-4.472-1.1-8.972 0-13.5-.03-3.783-.7-7.45-2-11a16.469 16.469 0 0 0 3-7 43.85 43.85 0 0 0-4-7.5c1.02-2.62 1.02-5.287 0-8 .11-2.214.78-4.214 2-6 .88.131 1.54-.202 2-1-1.17-2.7-1-5.367.5-8 .33 1.333.67 2.667 1 4a23.032 23.032 0 0 1 2-5c1.76 1.485 2.92 1.152 3.5-1h1c2.33-1.676 3.33-4.009 3-7 2.28-.529 4.28-1.529 6-3 1.22-1.55 1.22-3.216 0-5-1.28-1.431-2.95-2.098-5-2l-3-2c-.17-1.322.16-2.489 1-3.5-.67-.333-1.33-.667-2-1 1.6-.273 3.1-.773 4.5-1.5.33.667.67 1.333 1 2 .76-1.566.6-2.899-.5-4 .45-2.51-.22-4.51-2-6-2.29-.979-3.95-2.645-5-5 .9-.709 1.24-1.709 1-3 1.5-3.434 2.5-3.434 3 0 1.33-6 1.33-12 0-18a10.644 10.644 0 0 1-3 2.5l3 1c-1.45 1.117-3.12 1.784-5 2l5 1c-2.39.284-3.05 1.284-2 3-.95.483-1.95.649-3 .5v-1c.09-.996-.25-1.829-1-2.5-4.4-1.792-8.56-3.292-12.5-4.5a324.264 324.264 0 0 1-7-24 6.824 6.824 0 0 1-1.5 3c-5.025-1.337-10.025-2.67-15-4a75.218 75.218 0 0 1-18.5-4 116.857 116.857 0 0 0-12.5 0 16.252 16.252 0 0 1-4.5-2 21.537 21.537 0 0 1-4.5 1 1545.66 1545.66 0 0 0-98-4c-6.785-1.413-13.785-2.246-21-2.5a820.452 820.452 0 0 1-55-2 2590.91 2590.91 0 0 0-72-.5c-.834-1.248-2.167-1.915-4-2-3.819.488-7.653.821-11.5 1a251.161 251.161 0 0 0-21-2c-27.695.271-55.529.271-83.5 0-10.095 1.857-20.095 1.857-30 0-4.708.922-9.041 2.255-13 4a2457.96 2457.96 0 0 0-29 2 36322.825 36322.825 0 0 0-252-3.5c-18.819.475-37.153 3.475-55 9-27.329 14.868-39.829 38.035-37.5 69.5-1.51 40.688-3.01 81.355-4.5 122a622.495 622.495 0 0 0-2 29.5c.637 16.84.97 33.674 1 50.5-.375 3.159-1.041 5.993-2 8.5.069 1.986.735 3.486 2 4.5a6205.237 6205.237 0 0 0-1 118c-1.728 21.816-2.228 43.816-1.5 66 1.682 5.271 1.682 10.604 0 16l-1.5 1.5a121.805 121.805 0 0 1 2.5 7.5c.172 6.513.672 12.847 1.5 19 2 55.984 2.666 111.984 2 168-.722.418-1.222 1.084-1.5 2-.942 5.543-1.109 11.043-.5 16.5a69.408 69.408 0 0 1-2 10.5c.75 18.502.75 37.002 0 55.5a324.155 324.155 0 0 1 3 16.5c.247 1.213.914 1.88 2 2a58.413 58.413 0 0 0 6.5 19 119.887 119.887 0 0 0 13.5 12.5 4082.603 4082.603 0 0 1 18 8 341.46 341.46 0 0 0 58 4c.763.944 1.763 1.444 3 1.5a20.222 20.222 0 0 1 5-1 532.342 532.342 0 0 0 43 2 8177.92 8177.92 0 0 0 106-1c17.829 1.162 35.829 1.329 54 .5 5.027-1.828 10.193-1.994 15.5-.5 1.684-.183 1.85-.85.5-2a245.761 245.761 0 0 1 24-1c.761.891 1.761 1.558 3 2a631.32 631.32 0 0 0 28-1.5c-2.321 3.117-3.154 6.617-2.5 10.5 1.678 2.053 3.511 2.387 5.5 1 1.186-1.205 1.186-2.539 0-4a7.47 7.47 0 0 1 2-3c1.268.928 2.601 1.095 4 .5l-2-1a10.756 10.756 0 0 0 3-2.5c2.406 1.597 4.739 2.264 7 2-2.465 1.295-4.465 2.962-6 5-1.691 3.944-.357 5.944 4 6 1.844-1.779 2.51-4.112 2-7 3.396-.133 3.729-1.133 1-3a752.38 752.38 0 0 1 16-2.5l1 1c-3.211 3.458-3.545 6.958-1 10.5 1.983.343 3.317-.324 4-2 1.364-1.72 2.364-3.72 3-6l-5-2c2.165-2.225 4.832-3.391 8-3.5l-2-1c1.877-.576 3.711-.409 5.5.5l2-2a821.39 821.39 0 0 1 16.5 1c2.118.26 3.784 1.26 5 3 .197 1.98-.47 3.98-2 6 1.336 1.875.836 3.208-1.5 4-.257-1.795-.923-3.795-2-6-1.347-1.966-2.847-2.299-4.5-1h-1c-.63-2.435-1.963-3.102-4-2a110.383 110.383 0 0 0-2 11 12.93 12.93 0 0 0-5 .5c.455 2.312 1.455 4.312 3 6-5.06.37-9.893-.46-14.5-2.5-.456 1.244.044 2.08 1.5 2.5-.333.33-.667.67-1 1 1 .33 2 .67 3 1-1.619.24-2.619 1.07-3 2.5-5.979.33-11.979.66-18 1-13.671.17-27.337 0-41-.5-2.119-.34-2.453-1.18-1-2.5 1.374-3.669.041-6.003-4-7v6c1.12 2.46.453 4.46-2 6-9.017-.33-18.017-.33-27 0-1.671.17-3.004.83-4 2h-1c-59.331.63-118.665.96-178 1a470.66 470.66 0 0 1-37-1c-20.881-.51-41.881-1.51-63-3-15.996-4.08-30.996-10.409-45-19-2.049-2.974-4.549-5.64-7.5-8a10.134 10.134 0 0 1-1.5-4 69.418 69.418 0 0 0 1-7.5c-1.537-1.11-2.203-2.61-2-4.5a8.43 8.43 0 0 1-4-.5c-.805-1.972-2.139-3.472-4-4.5a88.918 88.918 0 0 0-3-13.5c-.174-12.99-.174-25.99 0-39-.444-1.762-.944-1.595-1.5.5l-.5-17.5c.024-6.243.69-12.243 2-18-1.577-2.957-1.244-5.624 1-8a20.81 20.81 0 0 1-1.5-10.5c.654 1.196 1.154 1.196 1.5 0a118.588 118.588 0 0 1-2-28c.306-2.885-.027-5.552-1-8-1.283-5.031-1.283-10.031 0-15 .666-5.323.999-10.823 1-16.5-.603-34.508-1.269-69.008-2-103.5 1.088-3.056 1.088-6.056 0-9a7702.316 7702.316 0 0 1-1-143 407.78 407.78 0 0 1 1-31c-.141-7.841.525-15.508 2-23-.833-8.994-1-17.994-.5-27 1.442-3.581.942-6.914-1.5-10v-4a2565.104 2565.104 0 0 0 2-39c-.166-6.009.001-12.009.5-18l1 3 .5-2c.659-8.721-.007-17.388-2-26a1958.87 1958.87 0 0 1 3-127v-21c.768-.763 1.268-1.763 1.5-3 .499-3.652.665-7.318.5-11a116.21 116.21 0 0 1 2-12v-1c1.353-6.052 3.853-11.718 7.5-17 7.092-8.594 14.926-16.261 23.5-23a95.213 95.213 0 0 1 20-10.5 185.346 185.346 0 0 1 18-4.5 80.853 80.853 0 0 1 21-2 1524.721 1524.721 0 0 1 133-1z" /><path fill="#cfc8bc" d="M656.5 120.5v-1c48.839.549 97.505 1.549 146 3 3.444-1.396 6.778-1.23 10 .5a2490.252 2490.252 0 0 0 111 3 1489.771 1489.771 0 0 1 64 6c7.733 1.434 15.07 3.6 22 6.5a245.538 245.538 0 0 1-32-6.5 335.21 335.21 0 0 0-39-3c-1.272-1.046-2.772-1.546-4.5-1.5a483.52 483.52 0 0 0-59 0 2970.171 2970.171 0 0 1-96.5-5 937.866 937.866 0 0 0-50.5 1c-4.04-2.11-8.207-2.443-12.5-1a546.613 546.613 0 0 0-59-2z" opacity=".141" /><path fill="#1d1913" d="M377.5 120.5c21.351.231 42.685.897 64 2-1.194 1.277-2.86 1.944-5 2a17.142 17.142 0 0 1-5.5-1 4.457 4.457 0 0 1-1.5 2 10.408 10.408 0 0 0-5-3c-1.188 1.34-2.688 2.007-4.5 2h-12c-2.954-.094-3.121-.594-.5-1.5l-27-1c-1.237-.232-2.237-.732-3-1.5z" opacity=".976" /><path fill="#c8c1b5" d="M367.5 120.5v-1c28.187-.053 56.354.614 84.5 2a8156.056 8156.056 0 0 1 147.5-2v1c-50.662.927-101.329 1.594-152 2h-6a1566.187 1566.187 0 0 0-64-2h-10z" opacity=".165" /><path fill="#d6cec2" d="M239.5 119.5l-5 2a80.853 80.853 0 0 0-21 2c.111-.617.444-1.117 1-1.5a198.405 198.405 0 0 1 25-2.5z" opacity=".455" /><path fill="#1d1913" d="M599.5 120.5h18a567.464 567.464 0 0 1-25.5 2 34.45 34.45 0 0 1-7-1c-5.717 2.229-11.55 2.562-17.5 1a1253.982 1253.982 0 0 1-120 0c50.671-.406 101.338-1.073 152-2z" /><path fill="#bab3a7" d="M213.5 123.5a185.346 185.346 0 0 0-18 4.5 95.213 95.213 0 0 0-20 10.5c2.046-2.866 4.713-5.033 8-6.5 9.137-5.767 19.137-8.6 30-8.5z" opacity=".196" /><path fill="#cbc6be" d="M1009.5 138.5c5.13.897 9.8 2.897 14 6 2.56 1.924 4.56 4.258 6 7-3.33-2.333-6.67-4.667-10-7-2.62-2.079-5.62-3.413-9-4-.8-.457-1.13-1.124-1-2z" opacity=".094" /><path fill="#1a1610" d="M703.5 146.5a2028.698 2028.698 0 0 0-149 1h-14c3.959-1.745 8.292-3.078 13-4 9.905 1.857 19.905 1.857 30 0 27.971.271 55.805.271 83.5 0a251.161 251.161 0 0 1 21 2c3.847-.179 7.681-.512 11.5-1 1.833.085 3.166.752 4 2z" /><path fill="#f1e5d8" d="M511.5 149.5a97.118 97.118 0 0 1 24 2 4.457 4.457 0 0 0 2-1.5 1311.23 1311.23 0 0 1 17-2.5 2028.698 2028.698 0 0 1 149-1c49.176 1.725 98.51 3.392 148 5a1545.66 1545.66 0 0 1 98 4 21.537 21.537 0 0 0 4.5-1 16.252 16.252 0 0 0 4.5 2c4.222-.223 8.389-.223 12.5 0a75.218 75.218 0 0 0 18.5 4c1.724 2.189 4.058 3.356 7 3.5 2.667 2 5 4.333 7 7 .95.483 1.95.649 3 .5 2.64 10.395 4.47 21.062 5.5 32 2.09 5.077 3.09 10.41 3 16 1.46.959 2.3 2.292 2.5 4-.33 6-.67 12-1 18 2.19 3.705 3.19 7.705 3 12-1.22 1.786-1.89 3.786-2 6 1.02 2.713 1.02 5.38 0 8a43.85 43.85 0 0 1 4 7.5 16.469 16.469 0 0 1-3 7c1.3 3.55 1.97 7.217 2 11-1.1 4.528-1.1 9.028 0 13.5.36 4.89.36 9.89 0 15 3.18.003 6.01 1.003 8.5 3 .95 2.456.45 4.456-1.5 6a19.516 19.516 0 0 0-5.5-5l-1.5 1a18.253 18.253 0 0 0 4 6c-.49.946-.82 1.946-1 3 1.25 1.834 1.92 3.834 2 6h-3c.93 3.199.93 6.365 0 9.5.78 1.95 1.78 3.783 3 5.5a18.273 18.273 0 0 0-4 6 92.887 92.887 0 0 1 2 7.5c-1.71 3.347-2.21 6.847-1.5 10.5 2.93.769 5.09 2.435 6.5 5 .89.761 1.56 1.761 2 3a14.953 14.953 0 0 0-3 5c-1.05 3.22-3.38 5.053-7 5.5 3.29 2.412 4.46 5.579 3.5 9.5a14.31 14.31 0 0 0-2.5 5.5 82.3 82.3 0 0 1 4 7.5 39.009 39.009 0 0 1-4 6.5 17.845 17.845 0 0 1 3 5c-.21 1.865-.87 3.532-2 5 .67 1.667 1.33 3.333 2 5a24.958 24.958 0 0 0-3 6c2.63 4.558 2.63 9.058 0 13.5.81 2.123 1.48 4.29 2 6.5a50.977 50.977 0 0 1-2 6.5c2.61 4.509 2.61 9.009 0 13.5a529.177 529.177 0 0 1 3 18c-2.38 4.054-2.38 8.221 0 12.5-1.33 2.333-1.33 4.667 0 7-2.23 4.888-1.9 9.722 1 14.5-1.35 1.555-2.01 3.389-2 5.5 2.49 6.379 2.49 12.712 0 19a19.43 19.43 0 0 0 3 7 28.033 28.033 0 0 0-4 6.5c.86 2.88 1.86 5.713 3 8.5-.55 2.056-1.71 3.723-3.5 5-.64 1.765-.47 3.432.5 5-.25 2.514-1.09 4.848-2.5 7-1.42-2.501-2.42-2.168-3 1-.85 2.907-.02 5.24 2.5 7-3.66 4.298-4.33 8.965-2 14a122.24 122.24 0 0 0-2 10.5 38.537 38.537 0 0 0 2.5 6.5c.33-1.333.67-2.667 1-4 .37 3.588-.13 7.088-1.5 10.5a87.38 87.38 0 0 0 3 10 11.245 11.245 0 0 1-2 4c.95.483 1.95.649 3 .5.16 2.027 0 4.027-.5 6-1.77-2.544-3.61-2.544-5.5 0 .64 4.695 1.47 9.362 2.5 14 .31-.808.81-1.475 1.5-2 .67 3 1.33 6 2 9 1.13.603 2.13.936 3 1l-3 2a19.355 19.355 0 0 1 1 8v5c.2 1.544.87 2.878 2 4-1.38 2.576-2.22 2.242-2.5-1-.7 1.778-1.2 3.612-1.5 5.5.25 1.326.92 2.326 2 3-2.5 4.309-1.84 8.309 2 12-.46 1.722-.63 3.555-.5 5.5-.72-.951-1.55-1.117-2.5-.5.9 1.652 1.9 3.152 3 4.5h1c2.02 1.932 3.36 3.932 4 6-.77 1.211-1.61 1.211-2.5 0a598.85 598.85 0 0 1-1.5 3c-3.2 7.105-3.7 14.438-1.5 22 2.42-2.494 4.76-2.494 7 0 .74 1.941.58 3.774-.5 5.5a10.502 10.502 0 0 0 5 3.5c.93 1.189 1.26 2.522 1 4-2.41.363-3.91-.637-4.5-3a47.961 47.961 0 0 0-9.5 9c-2.95 1.765-3.62 4.098-2 7-.34 3.12.32 5.953 2 8.5a41.292 41.292 0 0 1-2.5 5.5 74.194 74.194 0 0 1-2.5 18 297.43 297.43 0 0 1 1 26.5 9.733 9.733 0 0 1-1.5 4.5 285.1 285.1 0 0 1-5 54 269.126 269.126 0 0 1-7.5 20c-.96.453-1.79 1.119-2.5 2a38.276 38.276 0 0 1-2.5 6.5 241.507 241.507 0 0 0-17 13 591.38 591.38 0 0 1-26 9c-15.991 3.818-32.158 4.984-48.5 3.5-13.21 2.298-26.377 2.964-39.5 2a678.548 678.548 0 0 0-19 2.5c-.608.87-1.441 1.37-2.5 1.5a9.821 9.821 0 0 0-5-2 39.27 39.27 0 0 1-10.5 2.5 14.8 14.8 0 0 1-5.5 3.5 604.676 604.676 0 0 0-3.5-3 88.02 88.02 0 0 0-8 14c-1.946 1.587-3.446 1.254-4.5-1 .176-4.974-1.324-9.307-4.5-13a66.678 66.678 0 0 0-5.5 2c-.745-1.49-1.912-2.49-3.5-3-3.526 2.04-7.192 2.373-11 1-2.992.309-4.325 1.976-4 5a29.753 29.753 0 0 0 7-2c.877 4.935-1.123 7.602-6 8-2.437-.098-4.437-1.098-6-3-1.001-2.672-2.001-5.339-3-8-1.809 1.988-3.976 3.322-6.5 4-3.003-.243-4.17-1.91-3.5-5-5.891.227-9.224 3.227-10 9-5.311.656-10.311 1.99-15 4v-3c-2.47.154-4.47 1.154-6 3-5 1-7-1-6-6 2.047.011 4.047.344 6 1l4-2c5.258 2.242 9.258.909 12-4-.387-1.22-1.22-1.887-2.5-2-3.894 2.622-7.727 2.622-11.5 0a27.777 27.777 0 0 1-8.5 2 358.385 358.385 0 0 0-48.5.5c-1.829.273-3.329 1.107-4.5 2.5-1.827 3.765-2.327 7.598-1.5 11.5 3.403.2 4.403 1.7 3 4.5-2.583 1.438-4.917 1.104-7-1-1.513-2.016-2.347-4.349-2.5-7-2.789-2.529-4.289-5.696-4.5-9.5a615.493 615.493 0 0 1-36-2.5c-10.82.117-21.653.117-32.5 0a199.473 199.473 0 0 1-18.5 2 109.865 109.865 0 0 0-24 2 106.384 106.384 0 0 1-12.5-1 505.01 505.01 0 0 1-25.5 2 245.761 245.761 0 0 0-24 1 919.695 919.695 0 0 1-70 2 8177.92 8177.92 0 0 1-106 1 383.194 383.194 0 0 0-43-2c-1.699.12-3.365.454-5 1-1.237-.056-2.237-.556-3-1.5a341.46 341.46 0 0 1-58-4 4082.603 4082.603 0 0 0-18-8 119.887 119.887 0 0 1-13.5-12.5 58.413 58.413 0 0 1-6.5-19 250.348 250.348 0 0 1-2-26.5c-.097-25.497.237-50.997 1-76.5.666-56.016 0-112.016-2-168a551.028 551.028 0 0 0-2-60 668.445 668.445 0 0 0 1-50c-.041-39.337.293-78.671 1-118a2323.038 2323.038 0 0 0 1-93c1.49-40.645 2.99-81.312 4.5-122-2.329-31.465 10.171-54.632 37.5-69.5 17.847-5.525 36.181-8.525 55-9 83.998.875 167.998 2.042 252 3.5z" /><path fill="#312c24" d="M703.5 146.5c24.002-.167 48.002 0 72 .5a820.452 820.452 0 0 0 55 2c7.215.254 14.215 1.087 21 2.5-49.49-1.608-98.824-3.275-148-5z" /><path fill="#cac2b7" d="M540.5 147.5h14a1311.23 1311.23 0 0 0-17 2.5 4.457 4.457 0 0 1-2 1.5 97.118 97.118 0 0 0-24-2 2457.96 2457.96 0 0 1 29-2z" /><path fill="#d1cbc1" d="M175.5 138.5c-8.574 6.739-16.408 14.406-23.5 23-3.647 5.282-6.147 10.948-7.5 17 .188-6.71 2.355-12.71 6.5-18a163.824 163.824 0 0 1 21.5-21.5 4.934 4.934 0 0 1 3-.5z" opacity=".11" /><path fill="#c2bdb1" d="M1029.5 151.5c.74-.131 1.41.036 2 .5 3.9 3.722 6.23 8.222 7 13.5-3.22-4.47-6.22-9.136-9-14z" opacity=".357" /><path fill="#d1cac3" d="M1038.5 165.5c2.48 2.003 3.48 4.669 3 8-.96-.453-1.79-1.119-2.5-2 .35-2.11.18-4.11-.5-6z" opacity=".02" /><path fill="#d1c8bc" d="M144.5 179.5a116.21 116.21 0 0 0-2 12h-1c-.163-2.357.003-4.69.5-7 .099-2.153.933-3.819 2.5-5z" opacity=".055" /><path fill="#1b1813" d="M1019.5 144.5c3.33 2.333 6.67 4.667 10 7 2.78 4.864 5.78 9.53 9 14 .68 1.89.85 3.89.5 6 .71.881 1.54 1.547 2.5 2 1.2 6.276 2.2 12.61 3 19a21.9 21.9 0 0 0-5 6c1.7 2.349 4.04 3.349 7 3-.38 3.989.28 7.655 2 11 .13.876-.2 1.543-1 2a30.892 30.892 0 0 0-2-2h-1c-1.14-.974-2.14-2.141-3-3.5 1.25-1.494 1.25-2.994 0-4.5-.93-1.141-1.76-1.141-2.5 0-1.39-4.969-.89-9.802 1.5-14.5-1.24-4.158-1.91-8.658-2-13.5-2.7.12-3.37-.88-2-3-.67-.333-1.33-.667-2-1 .17-3 .33-6 .5-9-.54 1.771-1.37 2.104-2.5 1 .93-1.268 1.09-2.601.5-4-.97 2.378-1.64 2.044-2-1-2.82-1.717-4.82-4.05-6-7-2.54-2.343-4.38-5.01-5.5-8z" /><path fill="#14120d" d="M989.5 160.5c4.975 1.33 9.975 2.663 15 4a6.824 6.824 0 0 0 1.5-3 324.264 324.264 0 0 0 7 24c3.94 1.208 8.1 2.708 12.5 4.5.75.671 1.09 1.504 1 2.5-1.98-1.668-4.31-2.334-7-2v4c2.56.302 4.89-.032 7-1a4.939 4.939 0 0 0 3-.5c-1.05-1.716-.39-2.716 2-3l-5-1c1.88-.216 3.55-.883 5-2l-3-1a10.644 10.644 0 0 0 3-2.5c1.33 6 1.33 12 0 18-.5-3.434-1.5-3.434-3 0h-7v3h6c1.05 2.355 2.71 4.021 5 5-2.45-.49-4.12.343-5 2.5 1.78 2.223 4.11 3.39 7 3.5 1.1 1.101 1.26 2.434.5 4-.33-.667-.67-1.333-1-2-1.4.727-2.9 1.227-4.5 1.5.67.333 1.33.667 2 1-.84 1.011-1.17 2.178-1 3.5-2.17-1.146-3.5-2.979-4-5.5-2.85-1.289-5.85-1.789-9-1.5v3a46.864 46.864 0 0 0 9 2.5c-5.93 6.136-4.6 8.803 4 8 1.94-.908 2.94-2.408 3-4.5 2.05-.098 3.72.569 5 2h-3c-.58 2.785.42 4.452 3 5-1.72 1.471-3.72 2.471-6 3 .33 2.991-.67 5.324-3 7 .67-4-1-5.667-5-5-.74 3.45.59 5.116 4 5-.58 2.152-1.74 2.485-3.5 1a23.032 23.032 0 0 0-2 5c-.33-1.333-.67-2.667-1-4-1.5 2.633-1.67 5.3-.5 8-.46.798-1.12 1.131-2 1 .19-4.295-.81-8.295-3-12 .33-6 .67-12 1-18-.2-1.708-1.04-3.041-2.5-4 .09-5.59-.91-10.923-3-16-1.03-10.938-2.86-21.605-5.5-32a4.939 4.939 0 0 1-3-.5c-2-2.667-4.333-5-7-7-2.942-.144-5.276-1.311-7-3.5z" /><path fill="#c1bcb4" d="M1026.5 192.5v1c-2.11.968-4.44 1.302-7 1v-4c2.69-.334 5.02.332 7 2z" /><path fill="#cbc5ba" d="M1041.5 173.5c3.83 7.345 4.83 15.178 3 23.5.02 1.833.69 3.333 2 4.5-2.96.349-5.3-.651-7-3a21.9 21.9 0 0 1 5-6c-.8-6.39-1.8-12.724-3-19z" opacity=".286" /><path fill="#b7b3aa" d="M1028.5 201.5c.24 1.291-.1 2.291-1 3h-6v-3h7z" /><path fill="#8e887c" d="M141.5 191.5h1a60.931 60.931 0 0 1-.5 11c-.232 1.237-.732 2.237-1.5 3v-2a73.314 73.314 0 0 1 1-12z" opacity=".537" /><path fill="#ccc8be" d="M1032.5 209.5c1.78 1.49 2.45 3.49 2 6-2.89-.11-5.22-1.277-7-3.5.88-2.157 2.55-2.99 5-2.5z" /><path fill="#e3dfd0" d="M140.5 203.5v23l-2 1c-.166-7.008 0-14.008.5-21 .232-1.237.732-2.237 1.5-3z" opacity=".737" /><path fill="#8b877b" d="M1040.5 213.5c-.16 2.027 0 4.027.5 6 1.49 1.228 2.99 1.228 4.5 0-1.33 2.245-3.16 2.578-5.5 1-2.12-2.674-1.96-5.007.5-7z" opacity=".937" /><path fill="#eae6d7" d="M1044.5 212.5h1v7c-1.51 1.228-3.01 1.228-4.5 0-.5-1.973-.66-3.973-.5-6 1.07-.934 2.4-1.268 4-1z" opacity=".678" /><path fill="#494336" d="M1045.5 212.5c.65.591 1.32 1.257 2 2 .8-.457 1.13-1.124 1-2 .55 1.65.88 3.317 1 5l-4 1v-6z" /><path fill="#dad3c5" d="M1030.5 223.5l3 2c-.06 2.092-1.06 3.592-3 4.5-8.6.803-9.93-1.864-4-8a46.864 46.864 0 0 1-9-2.5v-3c3.15-.289 6.15.211 9 1.5.5 2.521 1.83 4.354 4 5.5z" /><path fill="#cfcec5" d="M1038.5 227.5c1.22 1.784 1.22 3.45 0 5-2.58-.548-3.58-2.215-3-5h3z" /><path fill="#c0bdb2" d="M1029.5 242.5h-1c-3.41.116-4.74-1.55-4-5 4-.667 5.67 1 5 5z" /><path fill="#d2c9bf" d="M1046.5 201.5c.6 4.229 2.1 8.229 4.5 12 .33 10.333.67 20.667 1 31 .01 5.225.84 10.225 2.5 15-1.8 5.835-2.47 11.835-2 18-.62-.111-1.12-.444-1.5-1-.4-5.726.1-11.393 1.5-17-1.85-3.745-2.19-7.578-1-11.5-1.35-1.555-2.01-3.389-2-5.5 1.55-4.053 1.22-7.887-1-11.5a59.903 59.903 0 0 0 1-13.5c-.12-1.683-.45-3.35-1-5-1.72-3.345-2.38-7.011-2-11z" opacity=".51" /><path fill="#c5beb5" d="M140.5 226.5a1958.87 1958.87 0 0 0-3 127h-1c-.308-42.075.358-84.075 2-126l2-1z" opacity=".302" /><path fill="#93928d" d="M1027.5 280.5c3-.333 4.33 1 4 4-3.94.734-5.27-.599-4-4z" /><path fill="#c5bdb2" d="M1052.5 280.5v7c-1.19-.366-1.86-1.199-2-2.5.4-1.728 1.07-3.228 2-4.5z" opacity=".592" /><path fill="#070603" d="M537.5 280.5c16.526-2.215 30.026 3.118 40.5 16 2.2 4.803 2.867 9.803 2 15-1.875 2.687-4.375 4.521-7.5 5.5a1421.623 1421.623 0 0 0-109 23 15.83 15.83 0 0 0-5.5 3.5c-24.94 73.759-43.94 149.093-57 226a319.352 319.352 0 0 0-3 40l-2.5 2.5c-22.667 3.346-37.834-5.821-45.5-27.5a160.115 160.115 0 0 1 4-39 1989.349 1989.349 0 0 1 25-112l20-66a33.724 33.724 0 0 0 1.5-11 1453.345 1453.345 0 0 0-76 25.5 314.81 314.81 0 0 1-21 11c-9.395 2.536-17.561.369-24.5-6.5a82.703 82.703 0 0 1-9-19c-.652-3.094-.318-6.094 1-9a46.543 46.543 0 0 1 13.5-10.5 210.404 210.404 0 0 1 31-13 1954.878 1954.878 0 0 1 212-51 944.774 944.774 0 0 0 10-3.5z" /><path fill="#c6c1b9" d="M1027.5 289.5h4v4h-4v-4z" /><path fill="#bfb7ac" d="M1036.5 296.5h5c-.11 5.131-2.44 6.297-7 3.5a18.311 18.311 0 0 0 2-3.5z" opacity=".949" /><path fill="#d3c9c0" d="M1052.5 290.5c.54 7.223.54 14.39 0 21.5-.19 3.261.47 6.261 2 9-1.69 4.681-2.35 9.515-2 14.5h-1a59.18 59.18 0 0 1 1-14c-1.59-3.485-2.26-7.152-2-11 1.49-4.978 1.15-9.811-1-14.5.4-2.215 1.4-4.048 3-5.5z" opacity=".498" /><path fill="#776e65" d="M1051.5 335.5h1c1.24 1.889 1.24 3.889 0 6h-1v-6z" opacity=".651" /><path fill="#5c564e" d="M136.5 353.5h1c1.993 8.612 2.659 17.279 2 26l-.5 2-1-3a162.597 162.597 0 0 0-.5 18h-1a792.348 792.348 0 0 1 0-43z" /><path fill="#1d1a14" d="M1020.5 306.5c1.19.47 1.86 1.47 2 3a48.98 48.98 0 0 0-1 11c4.85.445 9.52 1.445 14 3-3.51 5.034-2.18 6.868 4 5.5 1.47-.71 2.14-1.876 2-3.5a4.939 4.939 0 0 1 3 .5c-2.56 1.38-2.56 2.88 0 4.5-2.45 1.019-4.95 1.019-7.5 0-1.38.184-2.21.851-2.5 2-7.59.278-7.92 2.111-1 5.5 1.63.494 3.3.66 5 .5v-3c.93 1.068 1.27 2.401 1 4-1.85-.278-3.18.389-4 2 1.23 1.915 2.57 2.915 4 3-.05 3.165-.22 6.498-.5 10-1.94-1.36-3.6-1.027-5 1-.33-.667-.67-1.333-1-2a50.768 50.768 0 0 1-5.5 4c1.9.966 3.9 1.299 6 1 .09.996-.25 1.829-1 2.5-2.73.182-5.39.682-8 1.5 1.91 3.508 4.91 4.841 9 4 .33 2.161 1.33 3.994 3 5.5 2.51.093 4.67.926 6.5 2.5a51.1 51.1 0 0 0 0 7c1.7.906 3.53 1.239 5.5 1 .48-3.298-.52-5.964-3-8 .55-1.635.88-3.301 1-5 .97-1.135 2.14-2.135 3.5-3-.1-7.549.07-14.883.5-22 .06-1.981-.6-3.648-2-5 .94.011 1.61-.489 2-1.5-.79-3.561-2.46-6.561-5-9a57.53 57.53 0 0 1 3-12.5c-1.76-3.005-1.09-5.005 2-6-.26 3.848.41 7.515 2 11a59.18 59.18 0 0 0-1 14v6c1.7 15.473.87 30.806-2.5 46-4.66 3.11-8.49 2.444-11.5-2 2.18-2.763 2.51-5.763 1-9-4.72-.838-9.39-1.838-14-3a10.07 10.07 0 0 0 1.5 6c2.43 1.13 4.59 2.63 6.5 4.5a10.117 10.117 0 0 1-4 1.5c-1.41-2.565-3.57-4.231-6.5-5-.71-3.653-.21-7.153 1.5-10.5a92.887 92.887 0 0 0-2-7.5 18.273 18.273 0 0 1 4-6 26.373 26.373 0 0 1-3-5.5c.93-3.135.93-6.301 0-9.5h3c-.08-2.166-.75-4.166-2-6 .18-1.054.51-2.054 1-3a18.253 18.253 0 0 1-4-6l1.5-1c2.17 1.328 4 2.994 5.5 5 1.95-1.544 2.45-3.544 1.5-6-2.49-1.997-5.32-2.997-8.5-3 .36-5.11.36-10.11 0-15z" /><path fill="#d8d1c5" d="M1033.5 358.5h4v7c3.45-.744 5.12.59 5 4h4a20.041 20.041 0 0 1-1 5c2.48 2.036 3.48 4.702 3 8-1.97.239-3.8-.094-5.5-1a51.1 51.1 0 0 1 0-7c-1.83-1.574-3.99-2.407-6.5-2.5-1.67-1.506-2.67-3.339-3-5.5-4.09.841-7.09-.492-9-4a34.242 34.242 0 0 1 8-1.5c.75-.671 1.09-1.504 1-2.5z" /><path fill="#c9c2b5" d="M1031.5 346.5c4.52-.473 6.86 1.527 7 6a76.979 76.979 0 0 1-10-1v-4c1.29.237 2.29-.096 3-1z" opacity=".992" /><path fill="#d8cfc5" d="M1034.5 332.5c1.64.647 2.97 1.647 4 3v3c-1.7.16-3.37-.006-5-.5-6.92-3.389-6.59-5.222 1-5.5z" /><path fill="#d7d0c3" d="M1035.5 323.5c2.29.095 4.29.762 6 2 .14 1.624-.53 2.79-2 3.5-6.18 1.368-7.51-.466-4-5.5z" opacity=".992" /><path fill="#312e26" d="M162.5 346.5c.287 31.018-.046 62.018-1 93-1.265-1.014-1.931-2.514-2-4.5.959-2.507 1.625-5.341 2-8.5-.03-16.826-.363-33.66-1-50.5a622.495 622.495 0 0 1 2-29.5z" /><path fill="#dad2c4" d="M1051.5 341.5h1c-.41 7.035.25 13.869 2 20.5a113.492 113.492 0 0 0-2 31.5c-1.4-1.609-3.06-2.442-5-2.5a7.248 7.248 0 0 0-2 2.5c3.33 4.387 2.33 6.72-3 7-.87-2.217-1.2-4.55-1-7-3.34-.156-6.17-1.489-8.5-4a54.473 54.473 0 0 1-5.5 4c.66-1.844 1.66-3.51 3-5-.44-1.239-1.11-2.239-2-3 1.42-.209 2.76-.709 4-1.5a23.205 23.205 0 0 0-6.5-4.5 10.07 10.07 0 0 1-1.5-6c4.61 1.162 9.28 2.162 14 3 1.51 3.237 1.18 6.237-1 9 3.01 4.444 6.84 5.11 11.5 2 3.37-15.194 4.2-30.527 2.5-46z" /><path fill="#4d4235" d="M1019.5 389.5c1.96.448 2.3 1.448 1 3-.89-.825-1.22-1.825-1-3z" /><path fill="#080604" d="M882.5 454.5c.617.111 1.117.444 1.5 1 .708-2.768 2.208-3.601 4.5-2.5-1.196-.654-1.196-1.154 0-1.5 1.247 1.506 1.247 3.006 0 4.5.544.717 1.211 1.217 2 1.5-11.623 28.4-30.957 49.9-58 64.5-21.238 9.494-41.905 8.494-62-3a76.57 76.57 0 0 1-12-13.5 114.567 114.567 0 0 1-24 23.5c-17.547 10.112-33.714 8.279-48.5-5.5-4.169-5.673-6.669-12.006-7.5-19a16.873 16.873 0 0 0-1-8c-.607.124-.94.457-1 1-6.786 18.12-17.786 32.953-33 44.5-32.526 10.085-52.026-1.415-58.5-34.5-1.016-28.925 3.651-56.925 14-84a713.868 713.868 0 0 0 11-28c1.167-2.5 3-4.333 5.5-5.5 9.058-.986 17.391 1.014 25 6 2.606 1.938 4.439 4.438 5.5 7.5a46.335 46.335 0 0 1-1 17 529.274 529.274 0 0 0-15 56 152.086 152.086 0 0 0-1 29c.653 3.32 2.653 5.32 6 6 3.671-1.002 6.671-3.002 9-6 9.539-13.738 17.539-28.405 24-44a975.115 975.115 0 0 0 24-66c5.36-12.692 14.194-15.525 26.5-8.5 9.82 4.821 13.986 12.655 12.5 23.5a1736.286 1736.286 0 0 0-14 66 72.464 72.464 0 0 0 0 17c0 11.182 4.834 14.016 14.5 8.5 8.131-7.123 14.298-15.623 18.5-25.5.744-39.249 14.911-72.749 42.5-100.5 9.34-7.17 19.673-12.504 31-16 16.128-1.515 29.628 3.651 40.5 15.5a32.473 32.473 0 0 1 4 10 121.19 121.19 0 0 1 0 22c-12.561 34.042-37.061 51.708-73.5 53-4.501 31.009 8.165 42.176 38 33.5 19.468-9.636 36.134-22.802 50-39.5z" /><path fill="#342e27" d="M1052.5 393.5c1.19 1.205 1.19 2.539 0 4-3.48 1.225-3.81 3.058-1 5.5-1.64 2.928-1.31 5.428 1 7.5v4h-2c-.1-4.315-1.26-8.315-3.5-12a36.622 36.622 0 0 1-4.5-2c5.33-.28 6.33-2.613 3-7a7.248 7.248 0 0 1 2-2.5c1.94.058 3.6.891 5 2.5z" /><path fill="#080704" d="M542.5 401.5c19.871-.317 32.704 9.016 38.5 28 .881 10.141.215 20.141-2 30-12.03 8.913-22.697 7.58-32-4a70.34 70.34 0 0 1-4-16 263.166 263.166 0 0 0-30 49 331.84 331.84 0 0 0-23 73c-2.219 3.884-5.553 5.551-10 5-10.929-.529-20.596-4.196-29-11-1.872-2.705-2.705-5.705-2.5-9a3904.588 3904.588 0 0 1 18.5-102l1-30c2.304-5.154 6.304-7.488 12-7 17.212 2.185 27.045 11.851 29.5 29a206.974 206.974 0 0 1 14.5-23c5.044-5.905 11.211-9.905 18.5-12z" /><path fill="#e1d9cd" d="M1052.5 397.5v13c-2.31-2.072-2.64-4.572-1-7.5-2.81-2.442-2.48-4.275 1-5.5z" opacity=".533" /><path fill="#e9e1d2" d="M832.5 393.5c1.322-.17 2.489.163 3.5 1 .302 17.563-6.531 31.73-20.5 42.5a72.85 72.85 0 0 1-14 8c-1.444.781-2.777.614-4-.5 5.064-21.697 16.73-38.697 35-51z" /><path fill="#cec9bc" d="M1050.5 414.5h2c-.94 8.502-1.27 16.836-1 25a43.189 43.189 0 0 0-5-7c.96-.453 1.79-1.119 2.5-2 .26-5.382.76-10.715 1.5-16z" opacity=".248" /><path fill="#dfdac7" d="M1037.5 419.5c.16 3.018 0 6.018-.5 9-3.06 1.029-3.06 2.362 0 4 .49 1.634.66 3.301.5 5h-5a50.392 50.392 0 0 1-4-10h5c-.45-1.867-1.12-3.7-2-5.5.18-1.376.85-2.209 2-2.5 1.33-1.333 2.67-1.333 4 0z" /><path fill="#ada79d" d="M136.5 396.5h1a2565.104 2565.104 0 0 1-2 39c-.652-.949-.986-2.115-1-3.5.704-11.837 1.37-23.67 2-35.5z" opacity=".608" /><path fill="#2a241d" d="M1037.5 419.5h3v8c1.79.134 3.46-.199 5-1-1.59 2.321-3.92 3.321-7 3v5c1.95.273 3.45-.393 4.5-2 1.02 1.134 1.68.801 2-1 .38.556.88.889 1.5 1a43.189 43.189 0 0 1 5 7c-1.49.812-2.16 2.145-2 4 .34 2.012.67 4.012 1 6-1.57-2.311-2.4-4.978-2.5-8-1.84.061-3.68-.273-5.5-1h3c.74-3.45-.59-5.116-4-5v4c-1.43-.381-2.26-1.381-2.5-3-.38.556-.88.889-1.5 1 .16-1.699-.01-3.366-.5-5-3.06-1.638-3.06-2.971 0-4 .5-2.982.66-5.982.5-9z" /><path fill="#e1dace" d="M1042.5 440.5c-.67 0-1-.333-1-1v-4c3.41-.116 4.74 1.55 4 5h-3z" /><path fill="#352f26" d="M890.5 457.5c-.789-.283-1.456-.783-2-1.5 1.247-1.494 1.247-2.994 0-4.5-1.196.346-1.196.846 0 1.5-2.292-1.101-3.792-.268-4.5 2.5-.383-.556-.883-.889-1.5-1 2.384-4.39 6.051-6.723 11-7-1.551 3.119-2.551 6.452-3 10z" /><path fill="#d1cabf" d="M1051.5 439.5c-.25 11.289.09 22.622 1 34-1.23-.652-1.89-1.819-2-3.5.19-1.86.53-3.693 1-5.5a23 23 0 0 1-3-6.5c1.68-2.547 2.34-5.38 2-8.5-.33-1.988-.66-3.988-1-6-.16-1.855.51-3.188 2-4z" opacity=".635" /><path fill="#403b32" d="M135.5 439.5c2.442 3.086 2.942 6.419 1.5 10-.5 9.006-.333 18.006.5 27-1.475 7.492-2.141 15.159-2 23a1654.633 1654.633 0 0 1 0-51v-9z" opacity=".984" /><path fill="#d8d4c7" d="M135.5 448.5a1654.633 1654.633 0 0 0 0 51 407.78 407.78 0 0 0-1 31 1156.835 1156.835 0 0 0-1 68c-.667-11.328-1-22.828-1-34.5.542-37.833 1.042-75.666 1.5-113.5.278-.916.778-1.582 1.5-2z" opacity=".047" /><path fill="#676560" d="M676.5 497.5c.06-.543.393-.876 1-1a16.873 16.873 0 0 1 1 8l-2-7z" /><path fill="#d4cec4" d="M1052.5 476.5c.14 10.801-.19 21.635-1 32.5 1.69 3.579 2.69 7.412 3 11.5.21 3.027-.45 5.693-2 8a329.47 329.47 0 0 0-2-5c.78-1.947 1.78-3.78 3-5.5-.77-1.775-1.94-3.275-3.5-4.5-.72-3.992-.22-7.825 1.5-11.5-1.02-3.134-1.02-6.301 0-9.5-.91-3.291-1.91-6.625-3-10 1.33-2 2.67-4 4-6z" opacity=".147" /><path fill="#d5cfc3" d="M1052.5 529.5c-.95 4.699-.95 9.366 0 14-2.39-.185-3.39-1.518-3-4l1.5-9c.38-.556.88-.889 1.5-1z" opacity=".216" /><path fill="#e2dcce" d="M1052.5 543.5c2.56 2.59 2.56 5.257 0 8v-8z" opacity=".075" /><path fill="#080704" d="M913.5 544.5c35.151 1.318 47.317 18.652 36.5 52-15.618 25.787-38.451 39.787-68.5 42-5.44 31.486 7.227 42.319 38 32.5a129.376 129.376 0 0 0 26-16 15840.51 15840.51 0 0 1 24.5-22.5c1.5.833 2.667 2 3.5 3.5-8.523 25.391-24.19 45.058-47 59-15.936 7.545-32.603 9.878-50 7-7.694-2.339-14.528-6.172-20.5-11.5a123.233 123.233 0 0 0-9.5-12c-7.057 13.22-16.724 24.054-29 32.5-17.216 8.656-32.216 5.823-45-8.5-3.881-6.476-6.048-13.476-6.5-21a132.434 132.434 0 0 1 0-23 278.854 278.854 0 0 1 9.5-44c-1.322-.17-2.489.163-3.5 1a492.045 492.045 0 0 0-41 77 228.24 228.24 0 0 0-9 28c-.833 2.167-2.333 3.667-4.5 4.5-15.847.496-26.681-6.67-32.5-21.5a285.32 285.32 0 0 1 7-61c.667-3 .667-6 0-9a233.496 233.496 0 0 0-24 39 314.115 314.115 0 0 0-23 65c-2.358 7.692-7.525 10.525-15.5 8.5-16.002-3.643-24.168-13.477-24.5-29.5a10268.67 10268.67 0 0 0 9.5-53 4190.475 4190.475 0 0 0-27 18c-2.899 33.955-16.565 62.455-41 85.5-21.208 15.119-41.374 13.952-60.5-3.5-8.269-16.354-11.269-33.687-9-52 4.012-27.857 15.845-51.69 35.5-71.5 21.068-19.073 42.235-19.239 63.5-.5 5.116 5.669 8.116 12.335 9 20a4.933 4.933 0 0 0 2.5 1c13.134-7.626 24.634-17.293 34.5-29l5-21c3.699-4.772 8.533-6.272 14.5-4.5a66.114 66.114 0 0 1 17 8c5.141 5.031 7.641 11.198 7.5 18.5 9.006-16.17 20.506-30.337 34.5-42.5 14.365-3.988 25.865.179 34.5 12.5l2 6c.331 7.018.331 14.018 0 21l25-37 16.5-18.5c15.308-7.635 28.808-5.135 40.5 7.5 3.248 5.952 4.248 12.285 3 19a1327.586 1327.586 0 0 0-15.5 77.5c-.394 8.457 3.272 10.79 11 7 10.58-8.648 18.08-19.481 22.5-32.5.889-31.602 11.222-59.602 31-84 11.226-13.431 25.392-21.431 42.5-24z" /><path fill="#090805" d="M1033.5 558.5v3c2.16.221 3.83 1.221 5 3-1.6-.268-2.93.066-4 1-1.95-.732-3.62-.732-5 0 .51 2.404 1.67 3.071 3.5 2v4c1 1.333 2 1.333 3 0 .86 2.411 2.52 3.744 5 4 2.96.062 3.8-1.105 2.5-3.5 1.44-.991 2.44-2.324 3-4-1.49-2.2-1.16-4.034 1-5.5a4.486 4.486 0 0 1 1.5 2 30.35 30.35 0 0 1 0 11c-.45-2.429-1.28-2.596-2.5-.5 2.14 2.496 2.14 4.83 0 7 1.83 2.736 2.49 5.569 2 8.5-1.33 7-2.67 14-4 21 1.33 2 2.67 4 4 6-.64 3.148-1.64 3.481-3 1-1.23.645-2.57.811-4 .5 1.82 1.466 2.32 3.299 1.5 5.5-.23-1.237-.73-2.237-1.5-3-1.76-.961-3.76-1.295-6-1v-3c1.7-.466 3.2-.466 4.5 0 .48-.948.65-1.948.5-3 1.19-3.971-.47-5.638-5-5-.13 1.792.2 3.458 1 5-2 3.967-4 7.967-6 12 1.63.012 3.13 1.012 4.5 3 1.05-1.017 2.22-1.184 3.5-.5-.33.333-.67.667-1 1 1.35 1.294 2.69 1.46 4 .5.33.5.67 1 1 1.5-1.52 1.541-2.68 3.375-3.5 5.5-1.91-2.538-3.41-2.205-4.5 1-.95 1.419-1.28 3.085-1 5h-3a4.949 4.949 0 0 1-.5 3c-.91-1.939-2.41-2.939-4.5-3 .47-5.548.14-11.215-1-17 .56-2.785 1.89-5.118 4-7-1.83-.928-2.17-2.094-1-3.5a10.117 10.117 0 0 0-4-1.5c-.48-.916-.81-1.916-1-3 .88-3.973 1.55-7.973 2-12 .21-2.104.37-4.437.5-7 5.75-2.546 6.25-5.379 1.5-8.5 1.6-6.44 2.1-12.94 1.5-19.5l3-8c.71.881 1.54 1.547 2.5 2z" /><path fill="#070603" d="M443.5 585.5c9.416-.098 18.416 1.735 27 5.5 6.916 4.264 10.583 10.431 11 18.5a5381.194 5381.194 0 0 1-24.5 99 1030.472 1030.472 0 0 0-21 123 544.707 544.707 0 0 0 0 37c-.786 3.083-2.619 5.249-5.5 6.5-5.246 1.506-10.579 1.839-16 1-18.549-6.704-27.882-19.871-28-39.5a1182.005 1182.005 0 0 1 12-93 1517.282 1517.282 0 0 0-73 21 360.808 360.808 0 0 0-7.5 25 678.07 678.07 0 0 1-13 55 445.525 445.525 0 0 0-6 35 6.978 6.978 0 0 1-3.5 2.5c-8.176 1.45-15.843.117-23-4-8.698-6.57-14.531-15.07-17.5-25.5a16.242 16.242 0 0 1 0-8 5247.043 5247.043 0 0 1 12.5-60c-11.97.163-19.304-5.67-22-17.5-2.607-7.786.06-12.786 8-15a234.652 234.652 0 0 0 23.5-8.5 3682.877 3682.877 0 0 0 25-107l1-13c4.118-6.3 9.951-8.634 17.5-7 10.035.008 19.368 2.508 28 7.5 8.001 6.892 10.168 15.392 6.5 25.5a3151.508 3151.508 0 0 0-18.5 76 2078.867 2078.867 0 0 1 70-19 1259.45 1259.45 0 0 1 23.5-96 53.811 53.811 0 0 1 4-19c2.551-3.181 5.718-5.181 9.5-6z" /><path fill="#2b2720" d="M160.5 557.5a668.445 668.445 0 0 1-1 50 551.028 551.028 0 0 1 2 60 177.566 177.566 0 0 1-1.5-19 121.805 121.805 0 0 0-2.5-7.5l1.5-1.5c1.682-5.396 1.682-10.729 0-16-.728-22.184-.228-44.184 1.5-66z" /><path fill="#e7e0d2" d="M917.5 575.5h5c-1.029 24.389-13.029 40.722-36 49l-2-.5c6.886-19.038 17.886-35.204 33-48.5z" /><path fill="#c3bdb0" d="M1040.5 614.5c-1.2.905-2.54.905-4 0-.8-1.542-1.13-3.208-1-5 4.53-.638 6.19 1.029 5 5z" opacity=".961" /><path fill="#a29e92" d="M134.5 530.5c-.109 47.671.224 95.337 1 143l-2-25v-50c-.331-22.839.003-45.506 1-68z" opacity=".047" /><path fill="#d0c9be" d="M1052.5 551.5c-.51 10.023.16 19.856 2 29.5.05 2.906-.61 5.573-2 8 1.46 2.931 2.13 6.097 2 9.5a94.477 94.477 0 0 1-2 13c1.34 7.71 2.34 15.376 3 23a180.49 180.49 0 0 1-1.5 8c-.38.556-.88.889-1.5 1v-4c.12-1.699.45-3.365 1-5a19.43 19.43 0 0 1-3-7c.1-2.437 1.1-4.437 3-6a13.716 13.716 0 0 1-4-6.5c2.05-3.01 2.38-6.177 1-9.5 1.42-2.245 2.09-4.745 2-7.5a38.7 38.7 0 0 1 0-17 191.447 191.447 0 0 1-2-25.5c-.16-1.855.51-3.188 2-4z" opacity=".596" /><path fill="#8e887e" d="M1052.5 639.5v14c-1.09-.12-1.75-.787-2-2 .54-4.161 1.21-8.161 2-12z" /><path fill="#110f0a" d="M1042.5 400.5c1.38.734 2.88 1.401 4.5 2 2.24 3.685 3.4 7.685 3.5 12a176.868 176.868 0 0 0-1.5 16c-.71.881-1.54 1.547-2.5 2-.62-.111-1.12-.444-1.5-1-.32 1.801-.98 2.134-2 1-1.05 1.607-2.55 2.273-4.5 2v-5c3.08.321 5.41-.679 7-3v-7h-8c-.8-2.93-1.13-5.93-1-9 .84-1.879 1.17-3.879 1-6-2.15-.128-4.15.372-6 1.5-1.29 1.292-1.29 2.458 0 3.5-.32 1.548-1.32 2.215-3 2-.27 1.599.07 2.932 1 4 1.1 1.1 2.44 1.767 4 2v2c-1.15.291-1.82 1.124-2 2.5.88 1.8 1.55 3.633 2 5.5h-5c.97 3.457 2.3 6.79 4 10v2c-2.43 1.153-2.43 2.153 0 3 2.02-.016 3.02-1.016 3-3 1-.333 1.67-1 2-2 .62-.111 1.12-.444 1.5-1 .24 1.619 1.07 2.619 2.5 3 0 .667.33 1 1 1 1.82.727 3.66 1.061 5.5 1 .1 3.022.93 5.689 2.5 8 .34 3.12-.32 5.953-2 8.5a23 23 0 0 0 3 6.5c-.47 1.807-.81 3.64-1 5.5.11 1.681.77 2.848 2 3.5v3c-1.33 2-2.67 4-4 6 1.09 3.375 2.09 6.709 3 10-1.02 3.199-1.02 6.366 0 9.5-1.72 3.675-2.22 7.508-1.5 11.5 1.56 1.225 2.73 2.725 3.5 4.5a26.525 26.525 0 0 0-3 5.5 329.47 329.47 0 0 1 2 5v1c-.62.111-1.12.444-1.5 1l-1.5 9c-.39 2.482.61 3.815 3 4v8c-1.49.812-2.16 2.145-2 4 .09 8.461.76 16.961 2 25.5a38.7 38.7 0 0 0 0 17c.09 2.755-.58 5.255-2 7.5 1.38 3.323 1.05 6.49-1 9.5.72 2.553 2.06 4.72 4 6.5-1.9 1.563-2.9 3.563-3 6a19.43 19.43 0 0 0 3 7 20.041 20.041 0 0 0-1 5c-.79 3.839-1.46 7.839-2 12 .25 1.213.91 1.88 2 2v3c-1.28 1.194-1.94 2.86-2 5 .06 3.686 1.06 7.02 3 10-1.33 4.981-1.33 9.981 0 15-.85 2.371-2.18 4.371-4 6-1.33-5.035-2.5-5.035-3.5 0a32.601 32.601 0 0 0-3.5-5.5c2.43-1.087 2.1-1.587-1-1.5-2.04 1.442-4.37 2.442-7 3a7.239 7.239 0 0 1-2.5-2c-2 2.302-2.5 4.802-1.5 7.5-3.21 1.681-3.88 4.181-2 7.5-2.65 3.289-2.65 6.622 0 10-.67.333-1.33.667-2 1 .67 1 1.33 2 2 3a850.287 850.287 0 0 0-3 4c-1.09-.12-1.75-.787-2-2 1.72-2.415 2.22-5.082 1.5-8-.71-.881-1.54-1.547-2.5-2v-5c.92-4.511 2.92-8.511 6-12a4.942 4.942 0 0 0-1-2.5c-3.26-.426-4.93-2.259-5-5.5 1.38-2.773 2.05-5.773 2-9-.93-3.867-.93-7.7 0-11.5a50.977 50.977 0 0 0-2-6.5c.67-2 1.33-4 2-6-1.9-4.826-2.23-9.826-1-15 .13-3.836-.53-7.502-2-11a33.38 33.38 0 0 0 4-5.5 11.738 11.738 0 0 0-2-3.5c1.42.209 2.76.709 4 1.5-1.17 1.406-.83 2.572 1 3.5-2.11 1.882-3.44 4.215-4 7 1.14 5.785 1.47 11.452 1 17 2.09.061 3.59 1.061 4.5 3 .48-.948.65-1.948.5-3h3c-.28-1.915.05-3.581 1-5 1.09-3.205 2.59-3.538 4.5-1 .82-2.125 1.98-3.959 3.5-5.5-.33-.5-.67-1-1-1.5-1.31.96-2.65.794-4-.5.33-.333.67-.667 1-1-1.28-.684-2.45-.517-3.5.5-1.37-1.988-2.87-2.988-4.5-3 2-4.033 4-8.033 6-12 1.46.905 2.8.905 4 0a4.949 4.949 0 0 1-.5 3c-1.3-.466-2.8-.466-4.5 0v3c2.24-.295 4.24.039 6 1 .77.763 1.27 1.763 1.5 3 .82-2.201.32-4.034-1.5-5.5 1.43.311 2.77.145 4-.5 1.36 2.481 2.36 2.148 3-1-1.33-2-2.67-4-4-6 1.33-7 2.67-14 4-21 .49-2.931-.17-5.764-2-8.5 2.14-2.17 2.14-4.504 0-7 1.22-2.096 2.05-1.929 2.5.5a30.35 30.35 0 0 0 0-11 4.486 4.486 0 0 0-1.5-2c-2.16 1.466-2.49 3.3-1 5.5-.56 1.676-1.56 3.009-3 4 1.3 2.395.46 3.562-2.5 3.5-2.48-.256-4.14-1.589-5-4-1 1.333-2 1.333-3 0v-4c-1.83 1.071-2.99.404-3.5-2 1.38-.732 3.05-.732 5 0 .79 3.47 2.79 6.137 6 8 1.58-3.542.91-6.542-2-9-1.17-1.779-2.84-2.779-5-3v-3c-.96-.453-1.79-1.119-2.5-2l-3 8c.6 6.56.1 13.06-1.5 19.5 4.75 3.121 4.25 5.954-1.5 8.5-.13 2.563-.29 4.896-.5 7-.67-.667-1.33-1.333-2-2-.97-1.568-1.14-3.235-.5-5 1.79-1.277 2.95-2.944 3.5-5a91.866 91.866 0 0 1-3-8.5 28.033 28.033 0 0 1 4-6.5 19.43 19.43 0 0 1-3-7c2.49-6.288 2.49-12.621 0-19-.01-2.111.65-3.945 2-5.5-2.9-4.778-3.23-9.612-1-14.5-1.33-2.333-1.33-4.667 0-7-2.38-4.279-2.38-8.446 0-12.5a529.177 529.177 0 0 0-3-18c2.61-4.491 2.61-8.991 0-13.5.81-2.123 1.48-4.29 2-6.5a50.977 50.977 0 0 0-2-6.5c2.63-4.442 2.63-8.942 0-13.5a24.958 24.958 0 0 1 3-6c-.67-1.667-1.33-3.333-2-5 1.13-1.468 1.79-3.135 2-5a17.845 17.845 0 0 0-3-5 39.009 39.009 0 0 0 4-6.5 82.3 82.3 0 0 0-4-7.5 14.31 14.31 0 0 1 2.5-5.5c.96-3.921-.21-7.088-3.5-9.5 3.62-.447 5.95-2.28 7-5.5a54.473 54.473 0 0 0 5.5-4c2.33 2.511 5.16 3.844 8.5 4-.2 2.45.13 4.783 1 7z" opacity=".999" /><path fill="#e1d7ca" d="M1034.5 638.5c1.89-.203 3.39.463 4.5 2 3.97 5.951 3.14 10.951-2.5 15-6.01-.287-7.34-2.787-4-7.5 1.28-.684 2.45-.517 3.5.5.17-.5.33-1 .5-1.5-1.49-2.639-2.16-5.472-2-8.5z" /><path fill="#d4cfc4" d="M1041.5 621.5c.19 4.437-1.64 6.104-5.5 5a13.007 13.007 0 0 1-.5-5h6z" opacity=".976" /><path fill="#e1ddd2" d="M1038.5 564.5c2.91 2.458 3.58 5.458 2 9-3.21-1.863-5.21-4.53-6-8 1.07-.934 2.4-1.268 4-1z" opacity=".99" /><path fill="#ddd5c2" d="M1033.5 558.5c-.33-3.333-.67-6.667-1-10 3.44-.199 6.77.301 10 1.5 1.38 7.45-1.62 10.283-9 8.5z" opacity=".953" /><path fill="#dbd0c2" d="M1034.5 527.5c3.19-.48 6.02.186 8.5 2 .67 1.333.67 2.667 0 4-8.77 5.23-11.6 3.23-8.5-6z" opacity=".854" /><path fill="#d7d1c4" d="M1036.5 519.5c3.54-.123 5.54 1.543 6 5-4.06.652-6.06-1.015-6-5z" opacity=".984" /><path fill="#746b62" d="M1035.5 503.5v5h3c-1.07.934-2.4 1.268-4 1-.29-2.235.04-4.235 1-6z" /><path fill="#d4ccc1" d="M1038.5 508.5h-3v-5c2.45-1.465 4.45-.965 6 1.5-.48 1.642-1.48 2.809-3 3.5z" opacity=".992" /><path fill="#c7c4c0" d="M1033.5 460.5h3v4h-3v-4z" /><path fill="#cac8ba" d="M1035.5 439.5c.02 1.984-.98 2.984-3 3-2.43-.847-2.43-1.847 0-3 1.3-.616 2.3-.616 3 0z" /><path fill="#73705f" d="M1032.5 437.5h5c-.33 1-1 1.667-2 2-.7-.616-1.7-.616-3 0v-2z" /><path fill="#ddd6c7" d="M1040.5 419.5h5v7c-1.54.801-3.21 1.134-5 1v-8z" /><path fill="#edead5" d="M1033.5 417.5c-1.56-.233-2.9-.9-4-2v-3c1.83-.552 3.5-.552 5 0 .33.833.67 1.667 1 2.5-.18 1.376-.85 2.209-2 2.5z" /><path fill="#989482" d="M1031.5 409.5c1.62.538 3.28.871 5 1-.13 3.07.2 6.07 1 9-1.33-1.333-2.67-1.333-4 0v-2c1.15-.291 1.82-1.124 2-2.5-.33-.833-.67-1.667-1-2.5-1.5-.552-3.17-.552-5 0v3c-.93-1.068-1.27-2.401-1-4 1.68.215 2.68-.452 3-2z" /><path fill="#dfd9cb" d="M1036.5 410.5a20.68 20.68 0 0 1-5-1c-1.29-1.042-1.29-2.208 0-3.5 1.85-1.128 3.85-1.628 6-1.5.17 2.121-.16 4.121-1 6z" /><path fill="#cac4ba" d="M1030.5 394.5c5.01-.59 6.68 1.41 5 6-1.54 1.247-3.04 1.247-4.5 0-.5-1.973-.66-3.973-.5-6z" /><path fill="#e0d8cc" d="M133.5 648.5l2 25c1.088 2.944 1.088 5.944 0 9-.973 2.448-1.306 5.115-1 8a441.579 441.579 0 0 1-1-42z" opacity=".047" /><path fill="#4b453c" d="M1052.5 656.5v1c-.66 1.122-.99 2.455-1 4 .06 3.047 1.06 5.714 3 8-.04.916-.38 1.583-1 2-1.94-2.98-2.94-6.314-3-10 .06-2.14.72-3.806 2-5z" /><path fill="#e3dccf" d="M548.5 656.5c7.21.367 11.544 4.2 13 11.5a6.293 6.293 0 0 1-1 3c-6.97 3.887-14.137 4.387-21.5 1.5-.635-2.135-.301-4.135 1-6 2.669-3.5 5.502-6.833 8.5-10z" /><path fill="#e3d8ca" d="M1022.5 597.5c.67.667 1.33 1.333 2 2-.45 4.027-1.12 8.027-2 12 .19 1.084.52 2.084 1 3a11.738 11.738 0 0 1 2 3.5 33.38 33.38 0 0 1-4 5.5c1.47 3.498 2.13 7.164 2 11-1.23 5.174-.9 10.174 1 15-.67 2-1.33 4-2 6 .81 2.123 1.48 4.29 2 6.5-.93 3.8-.93 7.633 0 11.5.05 3.227-.62 6.227-2 9 .07 3.241 1.74 5.074 5 5.5.56.725.89 1.558 1 2.5-3.08 3.489-5.08 7.489-6 12 .23-2.749-.11-5.416-1-8l3-2c-.87-.064-1.87-.397-3-1-.67-3-1.33-6-2-9a4.486 4.486 0 0 0-1.5 2 171.205 171.205 0 0 1-2.5-14c1.89-2.544 3.73-2.544 5.5 0 .5-1.973.66-3.973.5-6a4.939 4.939 0 0 1-3-.5c.93-1.194 1.6-2.527 2-4a87.38 87.38 0 0 1-3-10c1.37-3.412 1.87-6.912 1.5-10.5-.33 1.333-.67 2.667-1 4a38.537 38.537 0 0 1-2.5-6.5c.53-3.624 1.2-7.124 2-10.5-2.33-5.035-1.66-9.702 2-14-2.52-1.76-3.35-4.093-2.5-7 .58-3.168 1.58-3.501 3-1 1.41-2.152 2.25-4.486 2.5-7z" /><path fill="#cfc9b9" d="M1041.5 685.5h-4v-7h-5c-.17-4.014 0-8.014.5-12 2.94-2.984 5.11-2.65 6.5 1a34.018 34.018 0 0 0-1 10h5c.22 2.921-.45 5.587-2 8z" /><path fill="#ede4d6" d="M523.5 690.5c4.725.851 9.392 2.018 14 3.5a93.349 93.349 0 0 0 21-.5c-3.611 20.058-12.611 37.225-27 51.5-9.07 6.356-14.904 4.189-17.5-6.5-.96-16.827 2.207-32.827 9.5-48z" /><path fill="#b2aa9f" d="M135.5 682.5c.731 34.492 1.397 68.992 2 103.5-.001 5.677-.334 11.177-1 16.5a8817.86 8817.86 0 0 0-2-112c-.306-2.885.027-5.552 1-8z" opacity=".51" /><path fill="#d9d1c4" d="M1022.5 707.5c.96.453 1.79 1.119 2.5 2 .72 2.918.22 5.585-1.5 8 .25 1.213.91 1.88 2 2 1.65 1.427 3.65 2.26 6 2.5.84 1.011 1.17 2.178 1 3.5a16.842 16.842 0 0 1-6.5-2c-2.97.877-2.97 2.21 0 4 .49 1.634.66 3.301.5 5 4.25.413 7.25 2.579 9 6.5-1.13 2.296-2.79 4.129-5 5.5.85 1.345 2.01 2.345 3.5 3 .71 2.195.05 3.862-2 5-1.69-1.929-3.86-2.929-6.5-3 .49-.973.99-1.973 1.5-3 .89 1.211 1.73 1.211 2.5 0-.64-2.068-1.98-4.068-4-6 1.48 1.435 2.82 1.268 4-.5-1.17-1.167-2.33-2.333-3.5-3.5-1.19 1.063-1.69 2.397-1.5 4a29.153 29.153 0 0 1-3-4.5c.95-.617 1.78-.451 2.5.5-.13-1.945.04-3.778.5-5.5-3.84-3.691-4.5-7.691-2-12-1.08-.674-1.75-1.674-2-3 .3-1.888.8-3.722 1.5-5.5.28 3.242 1.12 3.576 2.5 1-1.13-1.122-1.8-2.456-2-4z" /><path fill="#211c13" d="M1025.5 740.5h-1c-.19-1.603.31-2.937 1.5-4 1.17 1.167 2.33 2.333 3.5 3.5-1.18 1.768-2.52 1.935-4 .5z" /><path fill="#d6cec1" d="M1052.5 657.5a62.214 62.214 0 0 1 3 12 409.257 409.257 0 0 0-1.5 21c-1.96 2.852-1.63 5.519 1 8 .55 2.859.39 5.692-.5 8.5.81 2.46 1.48 4.96 2 7.5a8102.73 8102.73 0 0 0 0 82.5 724.723 724.723 0 0 0-1 72c-.17 6.5-.33 13-.5 19.5 0 2.551-.84 4.551-2.5 6-.13-9.53.21-19.03 1-28.5a33.644 33.644 0 0 1-4-7.5c2.82.184 4.49-1.149 5-4-1.44-1.429-2.44-3.095-3-5 .81-2.123 1.48-4.29 2-6.5-.86-5.086-.86-9.919 0-14.5 1.22-4.168 1.22-8.335 0-12.5a64.253 64.253 0 0 1 2-11 22.644 22.644 0 0 0-2-5.5 37.321 37.321 0 0 1 2-5.5c-2.24-3.265-2.57-6.765-1-10.5-.67-1.667-1.33-3.333-2-5 1.3-5.671 1.63-11.338 1-17a92.887 92.887 0 0 0 2-7.5c-.95-2.161-1.95-4.328-3-6.5-.01-2.111.65-3.945 2-5.5.5-7.373-.17-14.706-2-22 .67-1.333 1.33-2.667 2-4-.71-3.187-2.05-6.02-4-8.5a17.848 17.848 0 0 1 4-6 35.168 35.168 0 0 1-5-9c1.82-1.629 3.15-3.629 4-6-1.33-5.019-1.33-10.019 0-15 .62-.417.96-1.084 1-2-1.94-2.286-2.94-4.953-3-8 .01-1.545.34-2.878 1-4z" opacity=".157" /><path fill="#070603" d="M860.5 753.5c1.719.522 3.052 1.522 4 3a36310.15 36310.15 0 0 0-39 6c-21.172 1.688-41.839 5.688-62 12-.543.06-.876.393-1 1 6.305.464 6.639 1.964 1 4.5l2 1a53.019 53.019 0 0 0-13.5 3.5l-5-1c-.985 1.314-2.152 2.314-3.5 3-60.837 17.825-121.171 38.325-181 61.5a3146.922 3146.922 0 0 0-58 25c-13.621 5.531-20.621 1.031-21-13.5a138.848 138.848 0 0 1 5.5-26c4.346-8.01 10.846-13.51 19.5-16.5 113.739-46.629 232.072-72.463 355-77.5a276.196 276.196 0 0 0 29 3 151.164 151.164 0 0 0-19 5.5 88.656 88.656 0 0 0-25 4.5c-.886.825-1.219 1.825-1 3a68.045 68.045 0 0 0 13-2z" /><path fill="#2a241a" d="M864.5 756.5c-.948-1.478-2.281-2.478-4-3l34-3 7 1a6.802 6.802 0 0 1-3 1.5 593.491 593.491 0 0 0-34 3.5z" /><path fill="#b8b6b2" d="M816.5 754.5c2.357-.163 4.69.003 7 .5-4.213 2.144-8.546 2.977-13 2.5l.5-1a61.16 61.16 0 0 0 5.5-2z" /><path fill="#aaa6a1" d="M804.5 757.5c1.175-.219 2.175.114 3 1-2.367 1.895-5.034 2.395-8 1.5a38.715 38.715 0 0 0 5-2.5z" /><path fill="#6d6254" d="M833.5 764.5c1.788-.285 3.455.048 5 1a61.04 61.04 0 0 1-7.5 2l-1.5-1a71.254 71.254 0 0 0 4-2z" /><path fill="#d5d0c3" d="M825.5 762.5a112.33 112.33 0 0 1-5 2 9.425 9.425 0 0 0 3 3 3.647 3.647 0 0 1-1 1.5l-7 1 2 1c-3.348-.085-5.515 1.415-6.5 4.5-1.009-1.158-2.342-1.825-4-2-2.498.417-4.998.751-7.5 1a290.381 290.381 0 0 0 14-4.5c-.763-.944-1.763-1.444-3-1.5a2438.182 2438.182 0 0 0-44 7c-1.226-.02-2.226-.353-3-1 20.161-6.312 40.828-10.312 62-12z" /><path fill="#1b1712" d="M799.5 774.5a2238.373 2238.373 0 0 0-50 12.5c-2.098.678-4.098.511-6-.5 1.348-.686 2.515-1.686 3.5-3l5 1a53.019 53.019 0 0 1 13.5-3.5l-2-1c5.639-2.536 5.305-4.036-1-4.5.124-.607.457-.94 1-1 .774.647 1.774.98 3 1a2438.182 2438.182 0 0 1 44-7c1.237.056 2.237.556 3 1.5a290.381 290.381 0 0 1-14 4.5z" /><path fill="#1b130b" d="M1024.5 774.5c3.09 1.421 3.59 3.421 1.5 6-2.48-1.588-2.98-3.588-1.5-6z" /><path fill="#666256" d="M1022.5 790.5c-1.43 2.058-2.1 4.392-2 7-1.62-2.902-.95-5.235 2-7z" /><path fill="#d3cbc2" d="M136.5 817.5c.973 2.448 1.306 5.115 1 8a1453.007 1453.007 0 0 0-3 56c.478 20.342.812 40.675 1 61-.617-.111-1.117-.444-1.5-1a1231.59 1231.59 0 0 1 2.5-124z" opacity=".035" /><path fill="#1c1814" d="M1053.5 828.5c-.86 4.581-.86 9.414 0 14.5a50.977 50.977 0 0 1-2 6.5c.56 1.905 1.56 3.571 3 5-.51 2.851-2.18 4.184-5 4a33.644 33.644 0 0 0 4 7.5c-.79 9.47-1.13 18.97-1 28.5v1c-.67 2.667-1.33 5.333-2 8a97.7 97.7 0 0 0-.5-14l-1.5-1.5c3.35-3.492 3.69-7.159 1-11 1.74-3.966 1.91-8.133.5-12.5h-4a4.486 4.486 0 0 0-1.5-2c-1.01.438-1.01 1.104 0 2-.46.798-1.12 1.131-2 1a6.927 6.927 0 0 1-1 4c-1.56.233-2.9.9-4 2-.57-1.53-1.23-3.03-2-4.5 1.96-2.121 2.46-4.621 1.5-7.5-.71.881-1.54 1.547-2.5 2v-5c.72.418 1.22 1.084 1.5 2 2.28-4.211 5.28-4.877 9-2 2.71-1.925 4.21-4.591 4.5-8-.6-2.367-.94-4.7-1-7 1.46-4.558 3.13-8.891 5-13z" /><path fill="#e0d9cd" d="M1034.5 856.5v5c-3.57-.259-4.9-2.259-4-6 1.46-.067 2.79.266 4 1z" /><path fill="#d4ccc1" d="M1042.5 865.5h-4v-6h4v6z" opacity=".992" /><path fill="#0c0a06" d="M1041.5 685.5c3.1-.087 3.43.413 1 1.5a32.601 32.601 0 0 1 3.5 5.5c1-5.035 2.17-5.035 3.5 0a35.168 35.168 0 0 0 5 9 17.848 17.848 0 0 0-4 6c1.95 2.48 3.29 5.313 4 8.5-.67 1.333-1.33 2.667-2 4 1.83 7.294 2.5 14.627 2 22-1.35 1.555-2.01 3.389-2 5.5 1.05 2.172 2.05 4.339 3 6.5a92.887 92.887 0 0 1-2 7.5c.63 5.662.3 11.329-1 17 .67 1.667 1.33 3.333 2 5-1.57 3.735-1.24 7.235 1 10.5a37.321 37.321 0 0 0-2 5.5c.9 1.739 1.57 3.572 2 5.5a64.253 64.253 0 0 0-2 11c1.22 4.165 1.22 8.332 0 12.5a118.981 118.981 0 0 0-5 13c.06 2.3.4 4.633 1 7-.29 3.409-1.79 6.075-4.5 8-3.72-2.877-6.72-2.211-9 2-.28-.916-.78-1.582-1.5-2-1.21-.734-2.54-1.067-4-1-.9 3.741.43 5.741 4 6 .96-.453 1.79-1.119 2.5-2 .96 2.879.46 5.379-1.5 7.5.77 1.47 1.43 2.97 2 4.5-.49 2.448.34 4.115 2.5 5 2.67-1.843 3.17-4.176 1.5-7a6.927 6.927 0 0 0 1-4c.88.131 1.54-.202 2-1-1.01-.896-1.01-1.562 0-2a4.486 4.486 0 0 1 1.5 2h4c1.41 4.367 1.24 8.534-.5 12.5 2.69 3.841 2.35 7.508-1 11l1.5 1.5a97.7 97.7 0 0 1 .5 14 45.91 45.91 0 0 1-1 12c-.81 1.792-1.31 3.792-1.5 6-1.09 3.192-2.93 5.858-5.5 8 1.1.498 2.1.831 3 1a37.207 37.207 0 0 0-.5 7c-2.3 1.244-2.8 2.911-1.5 5a26.393 26.393 0 0 1-3.5 2c-1.01-.837-2.18-1.17-3.5-1v8a4.939 4.939 0 0 0-3 .5c.7 2.709 1.03 5.376 1 8-1.89 1.079-2.23 2.413-1 4-.67.667-1.33 1.333-2 2 1.21.893 1.21 1.726 0 2.5a7.239 7.239 0 0 0-2.5 2c.21-4.016-.79-4.016-3 0-.28-3.242-1.12-3.576-2.5-1-2.59.98-5.25 1.313-8 1a8.394 8.394 0 0 0-.5-4c-2.49 1.262-2.83.929-1-1 .52-4.71.85-9.377 1-14-1.09 4.27-1.93 8.604-2.5 13-.86 1.083-1.86 1.249-3 .5 2.27-3.578 2.6-7.412 1-11.5a4.473 4.473 0 0 1 2-1.5c-1.93-.783-3.43-.283-4.5 1.5-1.4-.001-2.9-.335-4.5-1a15.576 15.576 0 0 1-4 2.5c2.67.667 2.67 1.333 0 2 1.33 1.333 1.33 2.667 0 4 1.08.47 2.08.303 3-.5h1c-.3 1.26-.3 2.427 0 3.5 1.33.667 2.67 1.333 4 2l-1.5 1.5c-.84-1.507-2-2.007-3.5-1.5 1.25 1.458 1.25 2.958 0 4.5.17.333.33.667.5 1 4.62-4.226 6.12-3.226 4.5 3-2.74.552-5.41.885-8 1l-2-.5c.951-.718 1.117-1.551.5-2.5-2.598 3.559-3.098 2.892-1.5-2h1c.897 1.098 1.73 1.098 2.5 0 2.02-2.469 1.86-4.635-.5-6.5 2.38-1.247 2.05-1.58-1-1a6.978 6.978 0 0 0-3.5 2.5l-5.5-5.5c-1-.667-2-.667-3 0a7.293 7.293 0 0 1 3 2c-1.767 4.962-.767 9.295 3 13-2.646-.209-5.146-.042-7.5.5a28.931 28.931 0 0 0-1.5-4c2.246-1.483 3.079-3.483 2.5-6-1.507-1.005-2.673-2.338-3.5-4-1.268.928-2.601 1.095-4 .5 4.41-1.884 8.743-4.05 13-6.5.415-2.579 1.748-4.413 4-5.5l-2-1a41.002 41.002 0 0 1 8-3.5 14.75 14.75 0 0 1 2-6.5c-.33-.333-.67-.667-1-1 1.32-.816 1.99-1.983 2-3.5a269.126 269.126 0 0 0 7.5-20 285.1 285.1 0 0 0 5-54 9.733 9.733 0 0 0 1.5-4.5 297.43 297.43 0 0 0-1-26.5 74.194 74.194 0 0 0 2.5-18c.97-1.774 1.8-3.607 2.5-5.5-1.68-2.547-2.34-5.38-2-8.5-.1-2.608.57-4.942 2-7a47.961 47.961 0 0 1 9.5-9c.59 2.363 2.09 3.363 4.5 3 .26-1.478-.07-2.811-1-4a10.502 10.502 0 0 1-5-3.5c1.08-1.726 1.24-3.559.5-5.5-2.24-2.494-4.58-2.494-7 0-2.2-7.562-1.7-14.895 1.5-22 2.64.071 4.81 1.071 6.5 3 2.05-1.138 2.71-2.805 2-5-1.49-.655-2.65-1.655-3.5-3 2.21-1.371 3.87-3.204 5-5.5-1.75-3.921-4.75-6.087-9-6.5.16-1.699-.01-3.366-.5-5-2.97-1.79-2.97-3.123 0-4a16.842 16.842 0 0 0 6.5 2c.17-1.322-.16-2.489-1-3.5-2.35-.24-4.35-1.073-6-2.5.98-1.315 1.98-2.648 3-4-.67-1-1.33-2-2-3 .67-.333 1.33-.667 2-1-2.65-3.378-2.65-6.711 0-10-1.88-3.319-1.21-5.819 2-7.5-1-2.698-.5-5.198 1.5-7.5a7.239 7.239 0 0 0 2.5 2c2.63-.558 4.96-1.558 7-3z" /><path fill="#d5cfc6" d="M1041.5 869.5c1.67 2.824 1.17 5.157-1.5 7-2.16-.885-2.99-2.552-2.5-5 1.1-1.1 2.44-1.767 4-2z" /><path fill="#cdcabb" d="M1025.5 867.5c1-.086 1.83.248 2.5 1 .78 7.781-.39 8.448-3.5 2 .19-1.084.52-2.084 1-3z" /><path fill="#d1ccc1" d="M1026.5 858.5h3v4h-3v-4z" /><path fill="#deddd4" d="M1027.5 848.5h4v3h-4v-3z" /><path fill="#c9cabe" d="M1026.5 831.5c4.66-.485 5.99 1.348 4 5.5-1.28.684-2.45.517-3.5-.5a13.007 13.007 0 0 1-.5-5z" /><path fill="#cccbc5" d="M1026.5 814.5h3v5h-3v-5z" /><path fill="#cec4ba" d="M1030.5 790.5h3c.16 2.027 0 4.027-.5 6-1.01.837-2.18 1.17-3.5 1-.05-2.403.28-4.736 1-7z" /><path fill="#bfb2a6" d="M1042.5 787.5h4c.16 2.027 0 4.027-.5 6-1.36.88-2.86 1.214-4.5 1-.2-2.45.13-4.783 1-7z" opacity=".937" /><path fill="#d0c8bb" d="M1043.5 774.5c1.32-.17 2.49.163 3.5 1 .67 2 .67 4 0 6-3.03 1.248-4.53.081-4.5-3.5a10.98 10.98 0 0 1 1-3.5z" opacity=".931" /><path fill="#d4cfc2" d="M1042.5 730.5c3.49.945 4.82 3.278 4 7-5.81.034-7.15-2.3-4-7z" /><path fill="#d8d9cd" d="M1030.5 896.5c1.77.814 2.27 2.148 1.5 4a13.892 13.892 0 0 0-4 3c-.4-.228-.57-.562-.5-1v-6h3z" /><path fill="#686961" d="M1030.5 896.5h-3v6c-.97-2.107-1.3-4.441-1-7 1.6-.268 2.93.066 4 1z" /><path fill="#201d17" d="M163.5 835.5a2269.263 2269.263 0 0 0-1 76.5c.199 8.884.865 17.718 2 26.5-1.086-.12-1.753-.787-2-2a324.155 324.155 0 0 0-3-16.5c.75-18.498.75-36.998 0-55.5a69.408 69.408 0 0 0 2-10.5c-.609-5.457-.442-10.957.5-16.5.278-.916.778-1.582 1.5-2z" /><path fill="#1b1712" d="M137.5 825.5c-.44 9.441.227 18.775 2 28-.346 1.196-.846 1.196-1.5 0a20.81 20.81 0 0 0 1.5 10.5c-2.244 2.376-2.577 5.043-1 8-1.31 5.757-1.976 11.757-2 18l.5 17.5c.556-2.095 1.056-2.262 1.5-.5-.174 13.01-.174 26.01 0 39a88.918 88.918 0 0 1 3 13.5c1.861 1.028 3.195 2.528 4 4.5a8.43 8.43 0 0 0 4 .5c-.203 1.89.463 3.39 2 4.5a69.418 69.418 0 0 1-1 7.5c-3.748-2.766-6.582-6.432-8.5-11-2.812-7.27-4.979-14.604-6.5-22v-1a4282.906 4282.906 0 0 0-1-61 1453.007 1453.007 0 0 1 3-56z" /><path fill="#cec8bf" d="M1052.5 895.5c1.91 28.377-4.59 54.377-19.5 78a55.747 55.747 0 0 0-4.5 5.5c-2.29 2.111-4.96 3.611-8 4.5-.09-.996.25-1.829 1-2.5 6.5-3.825 11-9.325 13.5-16.5 1.33-1.333 2.67-2.667 4-4 3.01-9.072 6.01-18.072 9-27 .83-5.977 1.33-11.977 1.5-18a45.91 45.91 0 0 0 1-12c.67-2.667 1.33-5.333 2-8z" opacity=".122" /><path fill="#c8c3b8" d="M135.5 943.5c1.521 7.396 3.688 14.73 6.5 22 1.918 4.568 4.752 8.234 8.5 11a10.134 10.134 0 0 0 1.5 4c2.951 2.36 5.451 5.026 7.5 8-3.231-1.72-6.064-4.053-8.5-7a159.444 159.444 0 0 1-13-20 90.04 90.04 0 0 1-2.5-18z" opacity=".024" /><path fill="#110f0a" d="M1049.5 915.5c-.17 6.023-.67 12.023-1.5 18-2.99 8.928-5.99 17.928-9 27-1.33 1.333-2.67 2.667-4 4-2.5 7.175-7 12.675-13.5 16.5-.75.671-1.09 1.504-1 2.5-.33.667-.67 1.333-1 2-5.14.49-9.81 2.157-14 5-6.021-.178-11.521 1.155-16.5 4-.89-1.371-2.723-2.371-5.5-3-2.61.26-5.11.26-7.5 0a2.428 2.428 0 0 1-.5-2c.801-1.542 1.134-3.208 1-5a4.934 4.934 0 0 0-.5-3c-1.726 1.076-3.559 1.243-5.5.5l2-1-4-1c1.076-1.726 1.243-3.559.5-5.5-.671-.752-1.504-1.086-2.5-1-4.055.068-7.222 1.734-9.5 5-2.267-1.435-4.267-1.102-6 1a9.201 9.201 0 0 0-4.5-2 22.58 22.58 0 0 0-5.5 4c-1.589-2.214-3.756-3.547-6.5-4a50.577 50.577 0 0 0-8 4h-1c-1.418-1.808-3.418-2.475-6-2a20.826 20.826 0 0 1-7.5-3c-2.917 1.903-5.751 3.237-8.5 4a37.138 37.138 0 0 1-4.5-2 493.088 493.088 0 0 0-11.5 2c-.268 1.599.066 2.932 1 4-.188 1.603.312 2.937 1.5 4 .617-.949.451-1.782-.5-2.5a4.934 4.934 0 0 1 3-.5c-.133 3.425.533 3.758 2 1 .558 1.29 1.558 2.123 3 2.5a4.934 4.934 0 0 1-3 .5v4c-1 .333-1.667 1-2 2a5.727 5.727 0 0 0-3 1 20.69 20.69 0 0 0-5-1c-.809 1.792-1.309 3.792-1.5 6-.667-1.33-1.333-1.33-2 0-.581-2.664-2.247-4.998-5-7-.342 2.119-1.175 2.453-2.5 1h-2c-2.642-1.306-5.475-2.306-8.5-3-1.016 1.134-1.683.801-2-1-.216 1.884-.883 3.551-2 5-.617-.949-.451-1.782.5-2.5-.949-.617-1.782-.451-2.5.5a4.457 4.457 0 0 0-1.5-2c-1.196.346-1.196.846 0 1.5-1.882.198-3.548.698-5 1.5-1.186 1.461-1.186 2.795 0 4-1.395 1.88-3.395 2.88-6 3-.325-1.63-1.325-2.632-3-3a57.84 57.84 0 0 1-12 3h-1c-1.804-.66-3.804-1-6-1-4.637.99-9.303 1.66-14 2 1.055-5.249-.945-8.249-6-9a76.979 76.979 0 0 1-1 10 18.863 18.863 0 0 1-7-3c-3.584 2.47-7.584 3.47-12 3a28.816 28.816 0 0 0-1-10c-1.545-.952-3.212-1.285-5-1-.444 3.832-1.778 7.33-4 10.5-1 .67-2 .67-3 0a33.84 33.84 0 0 0-6-3.5c-2.05.58-3.05 1.91-3 4a13.127 13.127 0 0 1-6-2c-1.883.38-3.383 1.38-4.5 3a21.382 21.382 0 0 0-6-5c-4.775 4.55-10.108 5.22-16 2-5.025 1.88-10.192 2.38-15.5 1.5-.637-2.31-2.137-3.47-4.5-3.5a71.7 71.7 0 0 1-14.5 4 51.125 51.125 0 0 1-8-2c1.545-.95 3.212-1.29 5-1v-3a27.356 27.356 0 0 0-11-.5c-.556.383-.889.883-1 1.5-.951 1.42-1.284 3.09-1 5h-10c1.055-2.46 2.888-4.12 5.5-5a10.134 10.134 0 0 0 1.5-4c1.403-2.8.403-4.3-3-4.5-.827-3.902-.327-7.735 1.5-11.5 1.171-1.393 2.671-2.227 4.5-2.5a358.385 358.385 0 0 1 48.5-.5 27.777 27.777 0 0 0 8.5-2c3.773 2.622 7.606 2.622 11.5 0 1.28.113 2.113.78 2.5 2-2.742 4.909-6.742 6.242-12 4l-4 2a19.048 19.048 0 0 0-6-1c-1 5 1 7 6 6 2.252.416 3.752 1.749 4.5 4 .667-2.667 1.333-2.667 2 0a4.934 4.934 0 0 0 .5-3c2.306.493 4.639.826 7 1v3c-1.291 1.042-1.291 2.208 0 3.5 6.514 3.37 9.847 1.536 10-5.5-2.787-.977-5.787-1.31-9-1 .14-1.624-.527-2.79-2-3.5 3.175.053 5.842-.78 8-2.5.776-5.773 4.109-8.773 10-9-.67 3.09.497 4.757 3.5 5 2.524-.678 4.691-2.012 6.5-4 .999 2.661 1.999 5.328 3 8 1.563 1.902 3.563 2.902 6 3 4.877-.398 6.877-3.065 6-8a29.753 29.753 0 0 1-7 2c-.325-3.024 1.008-4.691 4-5 3.808 1.373 7.474 1.04 11-1 1.588.51 2.755 1.51 3.5 3a66.678 66.678 0 0 1 5.5-2c3.176 3.693 4.676 8.026 4.5 13 1.054 2.254 2.554 2.587 4.5 1a88.02 88.02 0 0 1 8-14c1.165.991 2.332 1.991 3.5 3a14.8 14.8 0 0 0 5.5-3.5 39.27 39.27 0 0 0 10.5-2.5 9.821 9.821 0 0 1 5 2c1.059-.13 1.892-.63 2.5-1.5a678.548 678.548 0 0 1 19-2.5c13.123.964 26.29.298 39.5-2 16.342 1.484 32.509.318 48.5-3.5a591.38 591.38 0 0 0 26-9 241.507 241.507 0 0 1 17-13 38.276 38.276 0 0 0 2.5-6.5c.71-.881 1.54-1.547 2.5-2-.01 1.517-.68 2.684-2 3.5.33.333.67.667 1 1a14.75 14.75 0 0 0-2 6.5 41.002 41.002 0 0 0-8 3.5l2 1c-2.252 1.087-3.585 2.921-4 5.5a122.638 122.638 0 0 1-13 6.5c1.399.595 2.732.428 4-.5.827 1.662 1.993 2.995 3.5 4 .579 2.517-.254 4.517-2.5 6a28.931 28.931 0 0 1 1.5 4c2.354-.542 4.854-.709 7.5-.5-3.767-3.705-4.767-8.038-3-13a7.293 7.293 0 0 0-3-2c1-.667 2-.667 3 0l5.5 5.5a6.978 6.978 0 0 1 3.5-2.5c3.05-.58 3.38-.247 1 1 2.36 1.865 2.52 4.031.5 6.5-.77 1.098-1.603 1.098-2.5 0 1.484-.973 1.984-2.307 1.5-4-2.394.636-4.894.636-7.5 0v4h5c-1.598 4.892-1.098 5.559 1.5 2 .617.949.451 1.782-.5 2.5l2 .5c2.59-.115 5.26-.448 8-1 1.62-6.226.12-7.226-4.5-3-.17-.333-.33-.667-.5-1 1.25-1.542 1.25-3.042 0-4.5 1.5-.507 2.66-.007 3.5 1.5l1.5-1.5c-1.33-.667-2.67-1.333-4-2-.3-1.073-.3-2.24 0-3.5 1.54.801 3.21 1.134 5 1-.19-4.514-2.36-5.847-6.5-4-.47 1.077-.3 2.077.5 3-.92.803-1.92.97-3 .5 1.33-1.333 1.33-2.667 0-4 2.67-.667 2.67-1.333 0-2 1.47-.635 2.8-1.469 4-2.5 1.6.665 3.1.999 4.5 1 1.07-1.783 2.57-2.283 4.5-1.5-.81.308-1.47.808-2 1.5 1.6 4.088 1.27 7.922-1 11.5 1.14.749 2.14.583 3-.5.57-4.396 1.41-8.73 2.5-13-.15 4.623-.48 9.29-1 14-1.83 1.929-1.49 2.262 1 1 .49 1.293.66 2.627.5 4 2.75.313 5.41-.02 8-1 1.38-2.576 2.22-2.242 2.5 1 2.21-4.016 3.21-4.016 3 0a7.239 7.239 0 0 1 2.5-2c1.21-.774 1.21-1.607 0-2.5.67-.667 1.33-1.333 2-2-1.23-1.587-.89-2.921 1-4 .03-2.624-.3-5.291-1-8a4.939 4.939 0 0 1 3-.5v-8c1.32-.17 2.49.163 3.5 1a26.393 26.393 0 0 0 3.5-2c-1.3-2.089-.8-3.756 1.5-5-.05-2.426.12-4.759.5-7-.9-.169-1.9-.502-3-1 2.57-2.142 4.41-4.808 5.5-8 .19-2.208.69-4.208 1.5-6z" /><path fill="#c8c4b7" d="M997.5 970.5h-6v-4c2.606.636 5.106.636 7.5 0 .484 1.693-.016 3.027-1.5 4z" /><path fill="#c0b9b2" d="M1003.5 960.5h-1c-.8-.923-.97-1.923-.5-3 4.14-1.847 6.31-.514 6.5 4-1.79.134-3.46-.199-5-1z" /><path fill="#a9a398" d="M573.5 977.5c-5.514.667-11.181 1.333-17 2-.387 1.22-1.22 1.887-2.5 2-1.728-.399-3.228-1.066-4.5-2a109.865 109.865 0 0 1 24-2z" /><path fill="#1f1d15" d="M966.5 973.5c.996-.086 1.829.248 2.5 1 .743 1.941.576 3.774-.5 5.5l4 1-2 1c1.941.743 3.774.576 5.5-.5.483.948.649 1.948.5 3a40.914 40.914 0 0 0-9 .5c-5.671 3.409-11.171 3.242-16.5-.5-.688-.832-.521-1.498.5-2 .793.431 1.627.765 2.5 1 4.41-1.621 8.91-3.121 13.5-4.5 1.257-2.076.924-3.91-1-5.5z" /><path fill="#110f0a" d="M667.5 994.5c-.246 2.97-1.912 4.303-5 4-1.171-.845-2.505-1.511-4-2-1.992-.172-3.658.495-5 2-.863 2.27-.863 4.6 0 7-2.42.21-4.753-.13-7-1-.929-1.19-1.262-2.52-1-4-4.438-1.075-6.438.59-6 5-4.701-.39-9.367-1.05-14-2-2 .67-4 1.33-6 2a478.492 478.492 0 0 0-39 0c.381-1.43 1.381-2.26 3-2.5-1-.33-2-.67-3-1 .333-.33.667-.67 1-1-1.456-.42-1.956-1.256-1.5-2.5 4.607 2.04 9.44 2.87 14.5 2.5-1.545-1.688-2.545-3.688-3-6a12.93 12.93 0 0 1 5-.5 110.383 110.383 0 0 1 2-11c2.037-1.102 3.37-.435 4 2-1.941 1.511-2.441 3.511-1.5 6 2.8 1.618 4.3.785 4.5-2.5.113-1.699-.553-2.866-2-3.5 1.653-1.299 3.153-.966 4.5 1 1.077 2.205 1.743 4.205 2 6 2.336-.792 2.836-2.125 1.5-4 1.53-2.02 2.197-4.02 2-6-1.216-1.74-2.882-2.74-5-3a821.39 821.39 0 0 0-16.5-1l-2 2c-1.789-.909-3.623-1.076-5.5-.5l2 1c-3.168.109-5.835 1.275-8 3.5l5 2c-.636 2.28-1.636 4.28-3 6v-5c-1.322-.17-2.489.163-3.5 1a18.453 18.453 0 0 0-.5 6c-2.545-3.542-2.211-7.042 1-10.5l-1-1a752.38 752.38 0 0 0-16 2.5c2.729 1.867 2.396 2.867-1 3 .51 2.888-.156 5.221-2 7a19.22 19.22 0 0 0 1-6h-5c1.535-2.038 3.535-3.705 6-5-2.261.264-4.594-.403-7-2a10.756 10.756 0 0 1-3 2.5l2 1c-1.399.595-2.732.428-4-.5a7.47 7.47 0 0 0-2 3h-4c-.333 3 1 4.333 4 4-1.989 1.387-3.822 1.053-5.5-1-.654-3.883.179-7.383 2.5-10.5a631.32 631.32 0 0 1-28 1.5c-1.239-.442-2.239-1.109-3-2a505.01 505.01 0 0 0 25.5-2c4.219.585 8.385.918 12.5 1 1.272.934 2.772 1.601 4.5 2 1.28-.113 2.113-.78 2.5-2 5.819-.667 11.486-1.333 17-2a199.473 199.473 0 0 0 18.5-2c10.847.117 21.68.117 32.5 0a615.493 615.493 0 0 0 36 2.5c.211 3.804 1.711 6.971 4.5 9.5.153 2.651.987 4.984 2.5 7z" /><path fill="#ddd7d0" d="M887.5 980.5h4v4h-3c-.934-1.068-1.268-2.401-1-4z" /><path fill="#cac4bc" d="M919.5 979.5c2.582-.475 4.582.192 6 2v3h-8c-.135-2.054.532-3.721 2-5z" /><path fill="#7b7369" d="M268.5 982.5a383.194 383.194 0 0 1 43 2 532.342 532.342 0 0 1-43-2z" /><path fill="#3d3830" d="M487.5 981.5c1.35 1.15 1.184 1.817-.5 2-5.307-1.494-10.473-1.328-15.5.5-18.171.829-36.171.662-54-.5a919.695 919.695 0 0 0 70-2z" /><path fill="#dfd6ca" d="M800.5 979.5c4.762.592 6.096 3.092 4 7.5-4.998 1.33-7.164-.504-6.5-5.5.995-.566 1.828-1.233 2.5-2z" /><path fill="#d0cec0" d="M876.5 980.5h5c.438 4.408-1.562 6.075-6 5-.134-1.792.199-3.458 1-5z" /><path fill="#d8d4c2" d="M717.5 980.5c3.141-.592 5.474.408 7 3-1.964 3.643-4.964 5.643-9 6-.435-3.338.232-6.338 2-9z" /><path fill="#817c69" d="M694.5 985.5l2 2c-1.333 1-1.333 2 0 3h-3c.801-1.542 1.134-3.208 1-5z" /><path fill="#d8d5c9" d="M823.5 982.5c4.993.497 5.993 2.664 3 6.5a18.453 18.453 0 0 1-6 .5c.203-2.733 1.203-5.066 3-7z" opacity=".988" /><path fill="#cbc7bd" d="M1019.5 985.5a60.7 60.7 0 0 0-12 6.5 8.43 8.43 0 0 1-4 .5c.67-.667 1.33-1.333 2-2 4.19-2.843 8.86-4.51 14-5z" opacity=".02" /><path fill="#d8d4ce" d="M515.5 987.5h3v4h-3v-4z" /><path fill="#d9d4c5" d="M694.5 985.5c.134 1.792-.199 3.458-1 5a250.78 250.78 0 0 1-14 2.5 9.454 9.454 0 0 1-2.5-1.5 18.453 18.453 0 0 1-.5-6 123.73 123.73 0 0 1 18 0z" /><path fill="#e0dbc9" d="M696.5 990.5c-1.333-1-1.333-2 0-3 2.664-3.216 5.33-3.383 8-.5-.259 1.261-.926 2.261-2 3a18.453 18.453 0 0 1-6 .5z" /><path fill="#282720" d="M753.5 983.5c-2.158 1.72-4.825 2.553-8 2.5 1.473.71 2.14 1.876 2 3.5 3.213-.31 6.213.023 9 1-3.662-.466-6.995.201-10 2v-3a51.569 51.569 0 0 1-7-1 4.934 4.934 0 0 1-.5 3c-.667-2.667-1.333-2.667-2 0-.748-2.251-2.248-3.584-4.5-4 1.53-1.846 3.53-2.846 6-3v3c4.689-2.01 9.689-3.344 15-4z" /><path fill="#d8cfc3" d="M621.5 984.5c3.854.71 4.687 2.71 2.5 6-2.381.935-4.881 1.268-7.5 1-.262-1.478.071-2.811 1-4 1.761-.535 3.094-1.535 4-3z" opacity=".969" /><path fill="#d0cac3" d="M580.5 992.5c-.683 1.676-2.017 2.343-4 2a18.453 18.453 0 0 1 .5-6c1.011-.837 2.178-1.17 3.5-1v5z" opacity=".984" /><path fill="#d0cbc0" d="M602.5 985.5h1c1.447.634 2.113 1.801 2 3.5-.2 3.285-1.7 4.118-4.5 2.5-.941-2.489-.441-4.489 1.5-6z" opacity=".992" /><path fill="#a8a59c" d="M631.5 987.5h4v3h-4v-3z" /><path fill="#c5c1b8" d="M545.5 988.5c1.186 1.461 1.186 2.795 0 4-3 .333-4.333-1-4-4h4z" /><path fill="#c9c4ba" d="M553.5 989.5h5a19.22 19.22 0 0 1-1 6c-4.357-.056-5.691-2.056-4-6z" opacity=".976" /><path fill="#ded5c9" d="M645.5 983.5h12c-.346 3.102.321 5.935 2 8.5l-1 1c-5.879 1.41-11.879 1.91-18 1.5l1.5-9a19.602 19.602 0 0 0 3.5-2z" /><path fill="#95958d" d="M769.5 995.5v-3h-3v3c-1.386-2.257-.719-3.924 2-5 2.107 1.413 2.44 3.08 1 5z" /><path fill="#f2f3ea" d="M769.5 995.5h-3v-3h3v3z" /><path fill="#211e18" d="M975.5 989.5a2.428 2.428 0 0 0 .5 2c2.39.26 4.89.26 7.5 0 2.777.629 4.61 1.629 5.5 3 4.979-2.845 10.479-4.178 16.5-4-.67.667-1.33 1.333-2 2a207.21 207.21 0 0 0-19 4c-.886-.825-1.219-1.825-1-3a9.86 9.86 0 0 0-6 1c-.972 2.136-2.639 3.303-5 3.5a28.717 28.717 0 0 1-13-.5c-.833-2.381-.5-4.714 1-7 5.177 1.521 10.177 1.188 15-1z" opacity=".995" /><path fill="#d7d1c4" d="M756.5 990.5c-.153 7.036-3.486 8.87-10 5.5-1.291-1.292-1.291-2.458 0-3.5 3.005-1.799 6.338-2.466 10-2z" /><path fill="#e2dbcd" d="M892.5 995.5c.333-1 1-1.667 2-2 5.877.287 11.544-.38 17-2 .17 1.322-.163 2.489-1 3.5a108.76 108.76 0 0 0-14 4.5c-2.689-.045-4.023-1.379-4-4z" /><path fill="#cec6bb" d="M790.5 992.5c4.827-.652 6.66 1.348 5.5 6-3.251 2.96-5.418 2.29-6.5-2a343.58 343.58 0 0 0 1-4z" /><path fill="#231f17" d="M919.5 979.5c-1.468 1.279-2.135 2.946-2 5h8v-3h1v4c3.408.672 6.075-.328 8-3 2.056 1.519 4.39 2.353 7 2.5 1.333 1.333 1.333 2.667 0 4a86.27 86.27 0 0 1-25.5.5c-2.59 1.187-3.09 3.02-1.5 5.5 3.318.175 6.651.008 10-.5 3.04-.083 5.873.584 8.5 2 1.049-1.607 2.549-2.273 4.5-2-2.014 6.75-6.181 8.42-12.5 5-3.589 3.44-7.422 3.77-11.5 1-1.632.8-3.132 1.8-4.5 3-1.719-2.22-3.886-3.883-6.5-5-.929 1.189-1.262 2.52-1 4-10.956.97-21.956.81-33-.5 3.903-.41 5.57-2.579 5-6.5 1.325 1.453 2.158 1.119 2.5-1 2.753 2.002 4.419 4.336 5 7 .667-1.33 1.333-1.33 2 0 .191-2.208.691-4.208 1.5-6-.669 4.176.831 5.51 4.5 4a4.934 4.934 0 0 0 .5-3 5.727 5.727 0 0 1 3-1c-.023 2.621 1.311 3.955 4 4a108.76 108.76 0 0 1 14-4.5c.837-1.011 1.17-2.178 1-3.5-5.456 1.62-11.123 2.287-17 2v-4a4.934 4.934 0 0 0 3-.5c-1.442-.377-2.442-1.21-3-2.5-1.467 2.758-2.133 2.425-2-1a4.934 4.934 0 0 0-3 .5c.951.718 1.117 1.551.5 2.5-1.188-1.063-1.688-2.397-1.5-4h3v-4h-4a493.088 493.088 0 0 1 11.5-2 37.138 37.138 0 0 0 4.5 2c2.749-.763 5.583-2.097 8.5-4a20.826 20.826 0 0 0 7.5 3z" /><path fill="#d5cbbf" d="M894.5 986.5c-1.23-1.797-1.896-3.797-2-6 3.298-.484 5.964.516 8 3-1.212 2.423-3.212 3.423-6 3z" /><path fill="#ded3c7" d="M909.5 979.5c4.686-.516 7.019 1.484 7 6-2.778-.478-4.778.522-6 3a45.777 45.777 0 0 1-7-3c-.886-.825-1.219-1.825-1-3h7v-3z" /><path fill="#d1ccc2" d="M159.5 988.5c14.004 8.591 29.004 14.92 45 19-3.72-.06-7.386-.56-11-1.5a140.413 140.413 0 0 1-32-15c-.881-.708-1.547-1.542-2-2.5z" opacity=".082" /><path fill="#d5d0c5" d="M520.5 1003.5a6.927 6.927 0 0 1-4-1v-6c4.041.997 5.374 3.331 4 7z" opacity=".988" /><path fill="#bebab1" d="M850.5 995.5c2.448-.49 4.115.343 5 2.5-1 2.61-2.667 3.11-5 1.5-1.186-1.205-1.186-2.539 0-4z" /><path fill="#211d16" d="M871.5 995.5h-8c-.183 2.436.484 4.6 2 6.5-3.206.3-6.372.8-9.5 1.5-3.987-.65-7.821-.98-11.5-1 2.605-.12 4.605-1.12 6-3 2.333 1.61 4 1.11 5-1.5-.885-2.157-2.552-2.99-5-2.5 1.452-.802 3.118-1.302 5-1.5-1.196-.654-1.196-1.154 0-1.5a4.457 4.457 0 0 1 1.5 2c.718-.951 1.551-1.117 2.5-.5-.951.718-1.117 1.551-.5 2.5 1.117-1.449 1.784-3.116 2-5 .317 1.801.984 2.134 2 1 3.025.694 5.858 1.694 8.5 3z" /><path fill="#dfd7ca" d="M828.5 1002.5a380.406 380.406 0 0 1-27 4c-28.194-.09-56.361-.09-84.5 0a37.645 37.645 0 0 1-10.5-3 88.678 88.678 0 0 1-19 2.5c-41.672.3-83.338.8-125 1.5v-1c6.021-.34 12.021-.67 18-1 12.889-.53 25.889-.53 39 0 2-.67 4-1.33 6-2 4.633.95 9.299 1.61 14 2-.438-4.41 1.562-6.075 6-5-.262 1.48.071 2.81 1 4 2.247.87 4.58 1.21 7 1-.863-2.4-.863-4.73 0-7 1.342-1.505 3.008-2.172 5-2a5.727 5.727 0 0 1-1 3v5c1.983.34 3.317-.32 4-2 .934-1.07 1.268-2.4 1-4 3.088.303 4.754-1.03 5-4 2.083 2.104 4.417 2.438 7 1a10.134 10.134 0 0 1-1.5 4c-2.612.88-4.445 2.54-5.5 5 3.462.98 7.129 1.31 11 1v-6c.111-.617.444-1.117 1-1.5a27.356 27.356 0 0 1 11 .5v3c-1.788-.29-3.455.05-5 1 2.611.88 5.278 1.55 8 2a71.7 71.7 0 0 0 14.5-4c2.363.03 3.863 1.19 4.5 3.5 5.308.88 10.475.38 15.5-1.5 5.892 3.22 11.225 2.55 16-2a21.382 21.382 0 0 1 6 5c1.117-1.62 2.617-2.62 4.5-3a13.127 13.127 0 0 0 6 2c-.05-2.09.95-3.42 3-4 2.13.97 4.13 2.13 6 3.5 1 .67 2 .67 3 0 2.222-3.17 3.556-6.668 4-10.5 1.788-.285 3.455.048 5 1a28.816 28.816 0 0 1 1 10c4.416.47 8.416-.53 12-3a18.863 18.863 0 0 0 7 3c.551-3.31.884-6.64 1-10 5.055.751 7.055 3.751 6 9 4.697-.34 9.363-1.01 14-2 2.196 0 4.196.34 6 1z" opacity=".855" /><path fill="#17120a" d="M661.5 1002.5c-.683 1.68-2.017 2.34-4 2v-5c.996.086 1.829-.248 2.5-1 .21 1.56.71 2.89 1.5 4z" /><path fill="#807b71" d="M658.5 996.5c1.495.489 2.829 1.155 4 2 .268 1.6-.066 2.93-1 4-.79-1.11-1.29-2.44-1.5-4-.671.752-1.504 1.086-2.5 1a5.727 5.727 0 0 0 1-3z" /><path fill="#ccc5b2" d="M724.5 994.5h5c.451 3.639-1.049 5.97-4.5 7-1.622-.45-2.788-1.45-3.5-3a514.367 514.367 0 0 0 3-4z" opacity=".992" /><path fill="#dfd8cb" d="M966.5 973.5c1.924 1.59 2.257 3.424 1 5.5a235.648 235.648 0 0 0-13.5 4.5 11.456 11.456 0 0 1-2.5-1c-1.021.502-1.188 1.168-.5 2 5.329 3.742 10.829 3.909 16.5.5a40.914 40.914 0 0 1 9-.5c.134 1.792-.199 3.458-1 5-4.823 2.188-9.823 2.521-15 1-1.5 2.286-1.833 4.619-1 7a28.717 28.717 0 0 0 13 .5c2.361-.197 4.028-1.364 5-3.5a9.86 9.86 0 0 1 6-1c-.219 1.175.114 2.175 1 3a207.21 207.21 0 0 1 19-4c-3.592 2.284-7.592 3.784-12 4.5a4515.498 4515.498 0 0 1-85.5 8.5c-25.763-.19-51.263-1.19-76.5-3a57.84 57.84 0 0 0 12-3c1.675.368 2.675 1.37 3 3 3.679.02 7.513.35 11.5 1 3.128-.7 6.294-1.2 9.5-1.5-1.516-1.9-2.183-4.064-2-6.5h10c.57 3.921-1.097 6.09-5 6.5a159.785 159.785 0 0 0 33 .5c-.262-1.48.071-2.811 1-4 2.614 1.117 4.781 2.78 6.5 5 1.368-1.2 2.868-2.2 4.5-3 4.078 2.77 7.911 2.44 11.5-1 6.319 3.42 10.486 1.75 12.5-5-1.951-.273-3.451.393-4.5 2-2.627-1.416-5.46-2.083-8.5-2a49.225 49.225 0 0 1-10 .5c-1.59-2.48-1.09-4.313 1.5-5.5a86.27 86.27 0 0 0 25.5-.5c1.333-1.333 1.333-2.667 0-4-2.61-.147-4.944-.981-7-2.5-1.925 2.672-4.592 3.672-8 3v-4a50.577 50.577 0 0 1 8-4c2.744.453 4.911 1.786 6.5 4a22.58 22.58 0 0 1 5.5-4 9.201 9.201 0 0 1 4.5 2c1.733-2.102 3.733-2.435 6-1 2.278-3.266 5.445-4.932 9.5-5z" opacity=".323" /><path fill="#e0dbcc" d="M884.5 995.5a20.69 20.69 0 0 1 5 1 4.934 4.934 0 0 1-.5 3c-3.669 1.51-5.169.176-4.5-4z" /><path fill="#231c16" d="M954.5 991.5c.997-.03 1.664.47 2 1.5-1.207 1.3-1.874 2.8-2 4.5a31.643 31.643 0 0 0-9.5 3c-1.971.22-3.138-.615-3.5-2.5a660.832 660.832 0 0 1 3-5c3.525-.179 6.859-.679 10-1.5z" opacity=".998" /><path fill="#61594f" d="M678.5 999.5v6c-3.871.31-7.538-.02-11-1h10c-.284-1.91.049-3.58 1-5z" opacity=".984" /><path fill="#39322b" d="M516.5 1002.5a6.927 6.927 0 0 0 4 1c-1.453 1.32-1.119 2.16 1 2.5 13.663.5 27.329.67 41 .5v1h-4c-14.587.37-29.254.7-44 1 2.453-1.54 3.12-3.54 2-6z" opacity=".992" /><path fill="#d6ccc4" d="M514.5 1008.5c14.746-.3 29.413-.63 44-1-.418.72-1.084 1.22-2 1.5-24.431.69-48.765 1.19-73 1.5.996-1.17 2.329-1.83 4-2 8.983-.33 17.983-.33 27 0z" opacity=".075" /><path fill="#dad3c7" d="M204.5 1007.5c21.119 1.49 42.119 2.49 63 3-18.336.17-36.67 0-55-.5-3.022-.1-5.689-.93-8-2.5z" opacity=".137" /><path fill="#9e988f" d="M482.5 1010.5a2175.18 2175.18 0 0 1-105.5 2c-24.336 0-48.502-.33-72.5-1 59.335-.04 118.669-.37 178-1z" opacity=".501" /></svg>
